<svg width="50" height="50" viewBox="0 0 50 50" fill="none" xmlns="http://www.w3.org/2000/svg">
<g id="Frame" clip-path="url(#clip0_58_7689)">
<g id="Group">
<path id="Vector" d="M1.55933 17.3408H48.4406V45.875H1.55933V17.3408Z" fill="#F6A96C"/>
<path id="Vector_2" d="M1.55933 41.0976H4.50952V21.3781C4.50951 21.3121 4.52251 21.2466 4.54779 21.1856C4.57306 21.1246 4.61011 21.0691 4.65683 21.0224C4.70354 20.9757 4.759 20.9386 4.82003 20.9134C4.88107 20.8881 4.94649 20.8751 5.01255 20.8751H5.8853V17.4385H1.55933V41.0976Z" fill="#EA9B58"/>
<path id="Vector_3" d="M4.60723 41.0976H0.503027C0.436965 41.0975 0.371548 41.1105 0.310512 41.1358C0.249476 41.1611 0.194018 41.1982 0.147305 41.2449C0.100592 41.2916 0.0635395 41.347 0.0382646 41.4081C0.0129896 41.4691 -1.28194e-05 41.5345 9.4839e-09 41.6006V45.3721C-1.28194e-05 45.4381 0.0129896 45.5036 0.0382646 45.5646C0.0635395 45.6256 0.100592 45.6811 0.147305 45.7278C0.194018 45.7745 0.249476 45.8116 0.310512 45.8368C0.371548 45.8621 0.436965 45.8751 0.503027 45.8751H4.50957L4.60723 45.4336V41.0976ZM49.9475 16.7131L45.9909 8.69014C45.9494 8.60594 45.8852 8.53505 45.8054 8.48548C45.7257 8.43592 45.6337 8.40965 45.5398 8.40967H38.6348V11.7705C38.6346 11.878 38.5919 11.981 38.5159 12.057C38.4399 12.133 38.3369 12.1757 38.2294 12.1758H11.7706C11.6631 12.1757 11.5601 12.133 11.4841 12.057C11.4081 11.981 11.3654 11.878 11.3652 11.7705V8.40967H4.46006C4.36619 8.40965 4.27418 8.43592 4.19447 8.48548C4.11475 8.53505 4.0505 8.60594 4.00898 8.69014L0.0525391 16.7131C-0.112305 17.0473 0.130957 17.4385 0.503613 17.4385H49.4965C49.869 17.4385 50.1123 17.0473 49.9475 16.7131Z" fill="#FD5426"/>
<path id="Vector_4" d="M48.7626 14.3104H5.58405C5.2114 14.3104 4.96814 13.9192 5.13298 13.585L7.68513 8.40967H4.46003C4.36616 8.40965 4.27416 8.43592 4.19444 8.48548C4.11472 8.53505 4.05047 8.60594 4.00896 8.69014L0.052511 16.7131C-0.112333 17.0474 0.130929 17.4385 0.503585 17.4385H49.4965C49.8691 17.4385 50.1124 17.0473 49.9475 16.7131L48.7626 14.3104Z" fill="#EF4424"/>
<path id="Vector_5" d="M21.6663 20.7358H42.0917V33.8596H21.6663V20.7358Z" fill="#C8EFFE"/>
<path id="Vector_6" d="M22.405 26.8496H24.3164V33.7619H22.405V26.8496Z" fill="#99E6FC"/>
<path id="Vector_7" d="M42.0919 33.8593V29.7783H39.1744C39.1348 29.7783 39.0955 29.7861 39.0589 29.8013C39.0223 29.8165 38.989 29.8387 38.961 29.8667C38.9329 29.8948 38.9107 29.928 38.8955 29.9647C38.8804 30.0013 38.8726 30.0405 38.8726 30.0802V33.8593H42.0919Z" fill="white"/>
<path id="Vector_8" d="M40.2919 33.7616V30.0802C40.2919 30.0405 40.2997 30.0013 40.3148 29.9647C40.33 29.928 40.3522 29.8948 40.3802 29.8667C40.4083 29.8387 40.4415 29.8165 40.4782 29.8013C40.5148 29.7861 40.554 29.7783 40.5937 29.7783H39.1744C39.0944 29.7783 39.0176 29.8101 38.961 29.8667C38.9044 29.9233 38.8726 30.0001 38.8726 30.0802V33.7616H40.2919Z" fill="#F3F0FF"/>
<g id="Group_2">
<path id="Vector_9" d="M20.9402 26.71H22.405V33.8594H20.9402V26.71ZM41.3657 26.71H42.8305V33.8594H41.3657V26.71Z" fill="#6D3326"/>
</g>
<path id="Vector_10" d="M26.6283 33.8597H28.8516C29.981 33.4439 30.8134 32.414 30.9419 31.1742C30.9605 30.9951 30.8214 30.8384 30.6413 30.8384H24.8384C24.6583 30.8384 24.5192 30.9951 24.5378 31.1742C24.6664 32.4139 25.4988 33.4439 26.6283 33.8597Z" fill="white"/>
<path id="Vector_11" d="M26.3919 33.7615H28.5002C27.4909 33.2966 26.7622 32.3264 26.6426 31.1737C26.6241 30.9946 26.7631 30.8379 26.9432 30.8379H24.8386C24.6585 30.8379 24.5195 30.9946 24.538 31.1737C24.6574 32.3253 25.384 33.296 26.3919 33.7615Z" fill="#F3F0FF"/>
<path id="Vector_12" d="M43.511 33.7617H20.2469C20.1809 33.7617 20.1154 33.7747 20.0544 33.8C19.9934 33.8253 19.9379 33.8623 19.8912 33.909C19.8445 33.9557 19.8074 34.0112 19.7822 34.0722C19.7569 34.1333 19.7439 34.1987 19.7439 34.2647V35.7738C19.7439 35.8399 19.7569 35.9053 19.7822 35.9663C19.8074 36.0274 19.8445 36.0828 19.8912 36.1296C19.9379 36.1763 19.9934 36.2133 20.0544 36.2386C20.1154 36.2639 20.1809 36.2769 20.2469 36.2769H43.5111C43.5771 36.2769 43.6426 36.2639 43.7036 36.2386C43.7646 36.2133 43.8201 36.1763 43.8668 36.1296C43.9135 36.0828 43.9506 36.0274 43.9758 35.9663C44.0011 35.9053 44.0141 35.8399 44.0141 35.7738V34.2647C44.0141 34.1313 43.9611 34.0034 43.8667 33.909C43.7724 33.8147 43.6444 33.7617 43.511 33.7617Z" fill="#A44F3E"/>
<path id="Vector_13" d="M23.9693 35.7738V34.2647C23.9693 34.1987 23.9823 34.1333 24.0076 34.0722C24.0328 34.0112 24.0699 33.9557 24.1166 33.909C24.1633 33.8623 24.2188 33.8253 24.2798 33.8C24.3408 33.7747 24.4063 33.7617 24.4723 33.7617H20.2469C20.1809 33.7617 20.1154 33.7747 20.0544 33.8C19.9934 33.8253 19.9379 33.8623 19.8912 33.909C19.8445 33.9557 19.8074 34.0112 19.7822 34.0722C19.7569 34.1333 19.7439 34.1987 19.7439 34.2647V35.7738C19.7439 35.8399 19.7569 35.9053 19.7822 35.9663C19.8074 36.0274 19.8445 36.0828 19.8912 36.1296C19.9379 36.1763 19.9934 36.2133 20.0544 36.2386C20.1154 36.2639 20.1809 36.2769 20.2469 36.2769H24.4723C24.3389 36.2769 24.211 36.2239 24.1166 36.1295C24.0223 36.0352 23.9693 35.9072 23.9693 35.7738Z" fill="#883F2E"/>
<g id="Group_3">
<path id="Vector_14" d="M22.6738 41.3511H25.189V45.8753H22.6738V41.3511ZM38.5692 41.3511H41.0844V45.8753H38.5692V41.3511Z" fill="#6D3326"/>
</g>
<path id="Vector_15" d="M42.0813 41.4487H21.6766C21.6105 41.4487 21.5451 41.4357 21.4841 41.4105C21.4231 41.3852 21.3676 41.3481 21.3209 41.3014C21.2742 41.2547 21.2371 41.1993 21.2118 41.1382C21.1866 41.0772 21.1736 41.0118 21.1736 40.9457V39.4366C21.1736 39.3706 21.1866 39.3051 21.2118 39.2441C21.2371 39.1831 21.2742 39.1276 21.3209 39.0809C21.3676 39.0342 21.4231 38.9971 21.4841 38.9719C21.5451 38.9466 21.6105 38.9336 21.6766 38.9336H42.0814C42.1475 38.9336 42.2129 38.9466 42.2739 38.9719C42.3349 38.9971 42.3904 39.0342 42.4371 39.0809C42.4838 39.1276 42.5209 39.1831 42.5462 39.2441C42.5714 39.3051 42.5844 39.3706 42.5844 39.4366V40.9457C42.5844 41.0791 42.5313 41.207 42.437 41.3014C42.3427 41.3957 42.2147 41.4487 42.0813 41.4487Z" fill="#A44F3E"/>
<path id="Vector_16" d="M24.2958 40.9457V39.4366C24.2957 39.3706 24.3087 39.3051 24.334 39.2441C24.3593 39.1831 24.3963 39.1276 24.4431 39.0809C24.4898 39.0342 24.5452 38.9971 24.6063 38.9719C24.6673 38.9466 24.7327 38.9336 24.7988 38.9336H21.6766C21.6105 38.9336 21.5451 38.9466 21.4841 38.9719C21.4231 38.9971 21.3676 39.0342 21.3209 39.0809C21.2742 39.1276 21.2371 39.1831 21.2118 39.2441C21.1866 39.3051 21.1736 39.3706 21.1736 39.4366V40.9457C21.1736 41.0118 21.1866 41.0772 21.2118 41.1382C21.2371 41.1993 21.2742 41.2547 21.3209 41.3014C21.3676 41.3481 21.4231 41.3852 21.4841 41.4105C21.5451 41.4357 21.6105 41.4487 21.6766 41.4487H24.7988C24.7327 41.4487 24.6673 41.4357 24.6063 41.4105C24.5452 41.3852 24.4898 41.3481 24.4431 41.3014C24.3963 41.2547 24.3593 41.1993 24.334 41.1382C24.3087 41.0772 24.2957 41.0118 24.2958 40.9457Z" fill="#883F2E"/>
<path id="Vector_17" d="M24.7627 26.8495H20.4043V21.2475C20.4043 21.1118 20.4582 20.9816 20.5541 20.8857C20.6501 20.7897 20.7802 20.7358 20.9159 20.7358H26.1416L25.0737 26.59C25.0605 26.6629 25.022 26.7287 24.9652 26.7761C24.9084 26.8235 24.8367 26.8495 24.7627 26.8495Z" fill="#FD5426"/>
<path id="Vector_18" d="M31.879 26.8495H27.5617C27.4881 26.8495 27.4167 26.8238 27.36 26.7768C27.3033 26.7298 27.2647 26.6645 27.251 26.5922L26.1416 20.7358H31.8789V26.8495H31.879Z" fill="#FD5426"/>
<path id="Vector_19" d="M37.3 26.8495H31.8789V20.7358H37.6162V26.5333C37.6162 26.6172 37.5829 26.6976 37.5236 26.7569C37.4643 26.8162 37.3839 26.8495 37.3 26.8495Z" fill="#EF4424"/>
<path id="Vector_20" d="M43.3537 26.8495H40.0779C40.0131 26.8495 39.9499 26.8296 39.8968 26.7925C39.8437 26.7554 39.8033 26.7029 39.781 26.6421L37.6165 20.7358H42.8421C42.9778 20.7358 43.108 20.7897 43.2039 20.8857C43.2999 20.9816 43.3538 21.1118 43.3538 21.2475L43.3537 26.8495Z" fill="#FD5426"/>
<path id="Vector_21" d="M17.0523 45.8751H4.50952V21.378C4.50951 21.312 4.52251 21.2465 4.54779 21.1855C4.57306 21.1245 4.61011 21.069 4.65683 21.0223C4.70354 20.9756 4.759 20.9385 4.82003 20.9133C4.88107 20.888 4.94649 20.875 5.01255 20.875H16.5493C16.6153 20.875 16.6807 20.888 16.7418 20.9133C16.8028 20.9385 16.8583 20.9756 16.905 21.0223C16.9517 21.069 16.9888 21.1245 17.014 21.1855C17.0393 21.2465 17.0523 21.312 17.0523 21.378V45.8751Z" fill="#883F2E"/>
<path id="Vector_22" d="M4.50952 32.6553H17.0523V42.1482H4.50952V32.6553Z" fill="#A44F3E"/>
<path id="Vector_23" d="M14.362 29.5363V23.962C14.362 23.8959 14.349 23.8305 14.3237 23.7695C14.2985 23.7085 14.2614 23.653 14.2147 23.6063C14.168 23.5596 14.1125 23.5225 14.0515 23.4972C13.9905 23.472 13.925 23.459 13.859 23.459H7.70273C7.63667 23.459 7.57125 23.472 7.51022 23.4972C7.44918 23.5225 7.39372 23.5596 7.34701 23.6063C7.3003 23.653 7.26325 23.7085 7.23797 23.7695C7.2127 23.8305 7.19969 23.8959 7.19971 23.962V29.5363C7.19969 29.6024 7.2127 29.6678 7.23797 29.7288C7.26325 29.7899 7.3003 29.8453 7.34701 29.892C7.39372 29.9388 7.44918 29.9758 7.51022 30.0011C7.57125 30.0264 7.63667 30.0394 7.70273 30.0394H13.859C13.9924 30.0393 14.1203 29.9863 14.2147 29.892C14.309 29.7977 14.362 29.6697 14.362 29.5363Z" fill="white"/>
<path id="Vector_24" d="M9.30576 29.5363V23.962C9.30575 23.8959 9.31875 23.8305 9.34403 23.7695C9.3693 23.7085 9.40635 23.653 9.45307 23.6063C9.49978 23.5596 9.55524 23.5225 9.61627 23.4972C9.67731 23.472 9.74273 23.459 9.80879 23.459H7.70273C7.63667 23.459 7.57125 23.472 7.51022 23.4972C7.44918 23.5225 7.39372 23.5596 7.34701 23.6063C7.3003 23.653 7.26325 23.7085 7.23797 23.7695C7.2127 23.8305 7.19969 23.8959 7.19971 23.962V29.5363C7.19969 29.6024 7.2127 29.6678 7.23797 29.7288C7.26325 29.7899 7.3003 29.8453 7.34701 29.892C7.39372 29.9388 7.44918 29.9758 7.51022 30.0011C7.57125 30.0264 7.63667 30.0394 7.70273 30.0394H9.80879C9.74273 30.0394 9.67732 30.0263 9.61629 30.0011C9.55526 29.9758 9.49981 29.9387 9.45309 29.892C9.40638 29.8453 9.36933 29.7899 9.34405 29.7288C9.31877 29.6678 9.30576 29.6024 9.30576 29.5363Z" fill="#F3F0FF"/>
<path id="Vector_25" d="M13.8591 30.7717H7.70273C7.02148 30.7717 6.46729 30.2175 6.46729 29.5363V23.962C6.46729 23.2808 7.02148 22.7266 7.70273 22.7266H13.8591C14.5403 22.7266 15.0945 23.2809 15.0945 23.962V29.5363C15.0945 30.2176 14.5403 30.7717 13.8591 30.7717ZM7.93223 29.3068H13.6297V24.1913H7.93223V29.3068Z" fill="#6D3326"/>
<g id="Group_4">
<path id="Vector_26" d="M13.3346 32.6553H14.7994V42.1482H13.3346V32.6553ZM6.7627 32.6553H8.22754V42.1482H6.7627V32.6553ZM10.0485 32.6553H11.5134V42.1482H10.0485V32.6553Z" fill="#6D3326"/>
</g>
<path id="Vector_27" d="M38.2294 12.2734H11.7706C11.7045 12.2734 11.6391 12.2604 11.5781 12.2352C11.5171 12.2099 11.4616 12.1728 11.4149 12.1261C11.3682 12.0794 11.3311 12.024 11.3058 11.9629C11.2806 11.9019 11.2676 11.8365 11.2676 11.7704V4.62754C11.2676 4.56148 11.2806 4.49606 11.3058 4.43502C11.3311 4.37399 11.3682 4.31853 11.4149 4.27182C11.4616 4.2251 11.5171 4.18805 11.5781 4.16278C11.6391 4.1375 11.7045 4.1245 11.7706 4.12451H38.2294C38.2955 4.1245 38.3609 4.1375 38.4219 4.16278C38.4829 4.18805 38.5384 4.2251 38.5851 4.27182C38.6318 4.31853 38.6689 4.37399 38.6942 4.43502C38.7194 4.49606 38.7324 4.56148 38.7324 4.62754V11.7704C38.7324 11.8365 38.7194 11.9019 38.6942 11.9629C38.6689 12.024 38.6318 12.0794 38.5851 12.1261C38.5384 12.1728 38.4829 12.2099 38.4219 12.2352C38.3609 12.2604 38.2955 12.2734 38.2294 12.2734Z" fill="#FFE5C2"/>
<path id="Vector_28" d="M14.5655 10.4925C14.4995 10.4925 14.434 10.4795 14.373 10.4542C14.312 10.4289 14.2565 10.3919 14.2098 10.3452C14.1631 10.2985 14.126 10.243 14.1008 10.182C14.0755 10.1209 14.0625 10.0555 14.0625 9.98945V4.12451H11.7706C11.7045 4.1245 11.6391 4.1375 11.5781 4.16278C11.5171 4.18805 11.4616 4.2251 11.4149 4.27182C11.3682 4.31853 11.3311 4.37399 11.3058 4.43502C11.2806 4.49606 11.2676 4.56148 11.2676 4.62754V11.7704C11.2676 11.8365 11.2806 11.9019 11.3058 11.9629C11.3311 12.024 11.3682 12.0794 11.4149 12.1261C11.4616 12.1728 11.5171 12.2099 11.5781 12.2352C11.6391 12.2604 11.7045 12.2734 11.7706 12.2734H38.2294C38.2955 12.2734 38.3609 12.2604 38.4219 12.2352C38.4829 12.2099 38.5384 12.1728 38.5851 12.1261C38.6318 12.0794 38.6689 12.024 38.6942 11.9629C38.7194 11.9019 38.7324 11.8365 38.7324 11.7704V10.4924L14.5655 10.4925Z" fill="#FED2A4"/>
<path id="Vector_29" d="M32.0422 7.72412H17.9578C17.5533 7.72412 17.2253 7.39629 17.2253 6.9917C17.2253 6.58711 17.5533 6.25928 17.9578 6.25928H32.0422C32.4468 6.25928 32.7747 6.58711 32.7747 6.9917C32.7747 7.39629 32.4468 7.72412 32.0422 7.72412ZM29.326 10.1386H20.6741C20.2696 10.1386 19.9417 9.81074 19.9417 9.40615C19.9417 9.00156 20.2696 8.67373 20.6741 8.67373H29.326C29.7306 8.67373 30.0584 9.00156 30.0584 9.40615C30.0584 9.81074 29.7305 10.1386 29.326 10.1386Z" fill="#F6A96C"/>
<path id="Vector_30" d="M49.497 45.8752H45.6741V41.6007C45.6741 41.5346 45.6871 41.4692 45.7123 41.4082C45.7376 41.3471 45.7747 41.2917 45.8214 41.245C45.8681 41.1982 45.9235 41.1612 45.9846 41.1359C46.0456 41.1106 46.111 41.0976 46.1771 41.0977H49.497C49.5631 41.0976 49.6285 41.1106 49.6895 41.1359C49.7506 41.1612 49.806 41.1982 49.8527 41.245C49.8995 41.2917 49.9365 41.3471 49.9618 41.4082C49.9871 41.4692 50.0001 41.5346 50 41.6007V45.3722C50 45.5056 49.9471 45.6335 49.8527 45.7279C49.7584 45.8222 49.6304 45.8752 49.497 45.8752Z" fill="#FD5426"/>
<g id="Group_5">
<path id="Vector_31" d="M49.0946 23.4556V21.3979C49.0946 21.2593 49.0395 21.1262 48.9415 21.0282C48.8434 20.9301 48.7104 20.875 48.5717 20.875H47.1025C47.0339 20.875 46.9659 20.8885 46.9024 20.9148C46.8389 20.9411 46.7813 20.9796 46.7327 21.0281C46.6842 21.0767 46.6456 21.1344 46.6194 21.1978C46.5931 21.2613 46.5796 21.3293 46.5796 21.3979V23.4556H49.0946ZM46.5796 31.574V33.6316C46.5796 33.7703 46.6347 33.9033 46.7328 34.0014C46.8308 34.0995 46.9638 34.1546 47.1025 34.1546H48.5717C48.7104 34.1546 48.8434 34.0995 48.9415 34.0014C49.0395 33.9033 49.0946 33.7703 49.0946 33.6316V31.574H46.5796Z" fill="#554E6F"/>
</g>
<g id="Group_6">
<path id="Vector_32" d="M47.5587 23.3579V21.3979C47.5587 21.2593 47.6138 21.1262 47.7119 21.0282C47.8099 20.9301 47.9429 20.875 48.0816 20.875H47.1025C46.9638 20.875 46.8308 20.9301 46.7328 21.0282C46.6347 21.1262 46.5796 21.2593 46.5796 21.3979V23.3579H47.5587ZM47.5587 33.6316V31.6717H46.5796V33.6316C46.5796 33.7703 46.6347 33.9033 46.7328 34.0014C46.8308 34.0995 46.9638 34.1546 47.1025 34.1546H48.0816C47.9429 34.1546 47.8099 34.0995 47.7119 34.0014C47.6138 33.9033 47.5587 33.7703 47.5587 33.6316Z" fill="#433F5C"/>
</g>
<path id="Vector_33" d="M49.4574 31.6717H46.2167C46.0728 31.6717 45.9348 31.6145 45.833 31.5127C45.7312 31.411 45.6741 31.2729 45.6741 31.129V23.9006C45.6741 23.7567 45.7312 23.6186 45.833 23.5169C45.9348 23.4151 46.0728 23.3579 46.2167 23.3579H49.4574C49.6013 23.3579 49.7393 23.4151 49.8411 23.5169C49.9429 23.6186 50 23.7567 50 23.9006V31.129C50 31.2729 49.9429 31.411 49.8411 31.5127C49.7393 31.6145 49.6013 31.6717 49.4574 31.6717Z" fill="#FD5426"/>
<path id="Vector_34" d="M47.7249 31.1291V23.9006C47.7249 23.7567 47.782 23.6186 47.8838 23.5169C47.9856 23.4151 48.1236 23.3579 48.2675 23.3579H46.2167C46.0728 23.3579 45.9348 23.4151 45.833 23.5169C45.7312 23.6186 45.6741 23.7567 45.6741 23.9006V31.1291C45.6741 31.273 45.7312 31.4111 45.833 31.5128C45.9348 31.6146 46.0728 31.6718 46.2167 31.6718H48.2675C48.1236 31.6718 47.9856 31.6146 47.8838 31.5128C47.782 31.4111 47.7249 31.273 47.7249 31.1291Z" fill="#EF4424"/>
</g>
</g>
<defs>
<clipPath id="clip0_58_7689">
<rect width="50" height="50" fill="white"/>
</clipPath>
</defs>
</svg>
