<svg width="50" height="50" viewBox="0 0 50 50" fill="none" xmlns="http://www.w3.org/2000/svg">
<g id="Frame" clip-path="url(#clip0_58_7417)">
<g id="Group">
<g id="04-Paper bag">
<path id="Vector" d="M49.2188 14.0626C49.2188 14.0626 47.6563 21.0939 41.4063 21.0939H41.1484C41.3243 20.5919 41.4116 20.0632 41.4063 19.5314C41.75 18.8751 42.3281 17.8751 42.8359 16.8595C43.1723 16.206 43.4419 15.5202 43.6406 14.8126L43.75 14.8439C44.7131 14.4624 45.7313 14.2382 46.7656 14.1798C47.5808 14.0991 48.3996 14.06 49.2188 14.0626Z" fill="#598019"/>
<path id="Vector_2" d="M46.7656 14.1797C45.7313 14.238 44.7131 14.4623 43.75 14.8438L43.6406 14.8125L43.75 14.0625V12.3438C43.7497 11.9294 43.8049 11.5169 43.9141 11.1172L44.3437 9.53125C44.4287 9.19063 44.481 8.84271 44.5 8.49219H44.5391C44.5937 8.04687 45.0156 6.25 48.4375 6.25C48.4375 6.25 48.4375 11.9453 46.75 14.0625L46.7656 14.1797Z" fill="#346C2F"/>
<path id="Vector_3" d="M34.1483 3.21898C33.8656 3.74561 33.3981 4.14909 32.8358 4.3518C32.3791 4.51223 31.9824 4.80854 31.6989 5.20095C31.4154 5.59336 31.2587 6.06309 31.2499 6.54711V10.9377C30.6373 10.9143 30.0563 10.6594 29.6242 10.2244C29.1921 9.78944 28.9411 9.20678 28.9218 8.59399C28.9088 8.52973 28.9036 8.46417 28.9062 8.39867V4.34398C28.9064 3.98946 29.0182 3.644 29.2258 3.35656C29.4333 3.06912 29.726 2.85426 30.0624 2.74242L30.5858 2.56273C31.0093 2.42026 31.36 2.1173 31.5624 1.71899C31.7027 1.43714 31.919 1.20006 32.1867 1.03443C32.4545 0.868802 32.7632 0.7812 33.078 0.781485H35.8905C35.5135 0.769473 35.1472 0.907496 34.8718 1.16527C34.5965 1.42305 34.4346 1.77952 34.4218 2.15648C34.423 2.52821 34.3288 2.89403 34.1483 3.21898ZM41.4062 2.34398C41.8052 2.38849 42.1773 2.56742 42.4613 2.85137C42.7452 3.13531 42.9241 3.5074 42.9687 3.90648C42.9491 4.21275 43.0111 4.51873 43.1483 4.79322C43.2855 5.06772 43.4931 5.3009 43.7499 5.46898C44.0072 5.63648 44.2153 5.86955 44.3526 6.14419C44.4899 6.41883 44.5516 6.72511 44.5312 7.03149V7.81274C44.5312 7.99242 44.5233 8.23461 44.4999 8.49242C44.4809 8.84295 44.4286 9.19087 44.3437 9.53148L43.914 11.1174C43.8048 11.5171 43.7496 11.9296 43.7499 12.344V14.0627L43.6405 14.8127C43.4418 15.5203 43.1722 16.2061 42.8358 16.8596C42.328 17.8752 41.7499 18.8752 41.4062 19.5315V6.25023C41.3951 5.41688 41.1002 4.6122 40.5702 3.96898C40.4525 3.81488 40.3218 3.67113 40.1796 3.5393C39.9592 3.33326 39.7271 3.14022 39.4843 2.96117C39.2966 2.80072 39.1652 2.58445 39.1093 2.34398H41.4062Z" fill="#B9D671"/>
<path id="Vector_4" d="M41.4061 9.71094V17.9688C41.3704 16.3315 41.0478 14.7133 40.453 13.1875C40.0612 12.1381 39.5965 11.1174 39.0623 10.1328C39.0389 9.78125 38.867 5.71094 40.5701 3.96875C41.1001 4.61196 41.395 5.41664 41.4061 6.25V9.71094Z" fill="#89B029"/>
<path id="Vector_5" d="M41.4062 17.9688V18.75C39.5625 16.3672 34.375 14.8438 34.375 14.8438V14.0156C34.2624 13.6119 34.0712 13.2343 33.8125 12.9045C33.5538 12.5747 33.2325 12.2992 32.8672 12.0938C32.8672 12.0938 37.3828 11.5156 40.4531 13.1875C41.048 14.7133 41.3706 16.3315 41.4062 17.9688ZM31.25 7.92188V6.54688C31.2588 6.06286 31.4155 5.59312 31.699 5.20071C31.9825 4.8083 32.3792 4.512 32.8359 4.35156C33.3982 4.14886 33.8657 3.74538 34.1484 3.21875C36.0416 5.33103 37.6901 7.65043 39.0625 10.1328V10.1562C35.9922 7.77344 31.6406 7.92188 31.6406 7.92188H31.25Z" fill="#88AB00"/>
<path id="Vector_6" d="M39.1094 2.34398C39.1653 2.58445 39.2967 2.80072 39.4844 2.96117C39.7272 3.14022 39.9593 3.33326 40.1797 3.5393C40.3219 3.67113 40.4526 3.81488 40.5703 3.96898C38.8672 5.71117 39.0391 9.78149 39.0625 10.133C37.6901 7.65066 36.0416 5.33127 34.1484 3.21898C34.3289 2.89403 34.4231 2.52821 34.4219 2.15648C34.4347 1.77952 34.5966 1.42305 34.8719 1.16527C35.1473 0.907496 35.5136 0.769473 35.8906 0.781485H37.8203C37.9835 0.781279 38.1451 0.813269 38.2959 0.875622C38.4467 0.937975 38.5837 1.02947 38.6991 1.14485C38.8145 1.26024 38.906 1.39726 38.9684 1.54806C39.0307 1.69887 39.0627 1.86049 39.0625 2.02367C39.0622 2.13218 39.078 2.24013 39.1094 2.34398Z" fill="#93BD2C"/>
<path id="Vector_7" d="M31.6406 7.92223C31.6406 7.92223 35.9922 7.77379 39.0625 10.1566V10.1332C39.5967 11.1177 40.0614 12.1385 40.4531 13.1879C37.3828 11.516 32.8672 12.0941 32.8672 12.0941C32.4811 11.8931 32.1171 11.6522 31.7813 11.3754C31.4688 11.1332 31.25 10.9379 31.25 10.9379V7.92223H31.6406ZM34.375 14.8441C34.375 14.8441 39.5625 16.3675 41.4062 18.7504V19.5316C41.4116 20.0635 41.3243 20.5922 41.1484 21.0941H37.1563C36.9867 19.6752 36.448 18.3256 35.5938 17.18C34.9563 16.5457 34.5306 15.7298 34.375 14.8441Z" fill="#80A100"/>
<path id="Vector_8" d="M33.5937 17.1875C33.5937 14.7891 30.9765 12.8203 27.5937 12.5391L27.6015 12.5C27.4194 12.2818 27.3273 12.0025 27.3437 11.7188V10.1562C27.3449 9.74223 27.5099 9.34552 27.8027 9.05276C28.0954 8.76 28.4921 8.59499 28.9062 8.59375H28.9218C28.9411 9.20655 29.1921 9.78921 29.6242 10.2242C30.0563 10.6592 30.6373 10.9141 31.2499 10.9375C31.2499 10.9375 31.4687 11.1328 31.7812 11.375C32.1171 11.6518 32.481 11.8927 32.8671 12.0937C33.2325 12.2992 33.5537 12.5747 33.8124 12.9045C34.0712 13.2343 34.2623 13.6119 34.3749 14.0156V14.8438C34.5306 15.7294 34.9562 16.5454 35.5937 17.1797C36.4479 18.3252 36.9866 19.6749 37.1562 21.0938H33.0468C33.4152 19.8246 33.5994 18.5091 33.5937 17.1875Z" fill="#628C1B"/>
<path id="Vector_9" d="M46.8078 10.0188C46.7352 10.1824 46.6085 10.3162 46.449 10.3976C46.2895 10.479 46.1068 10.5032 45.9316 10.466C45.7564 10.4289 45.5993 10.3326 45.4866 10.1935C45.3739 10.0543 45.3124 9.88065 45.3125 9.70156V7.23281C44.8952 7.57519 44.6197 8.06006 44.5391 8.59375H44.5C44.481 8.94427 44.4287 9.2922 44.3437 9.63281L43.9141 11.2187C43.8049 11.6184 43.7497 12.031 43.75 12.4453V14.1641L43.6406 14.9141L43.75 14.9453C44.7131 14.5638 45.7313 14.3396 46.7656 14.2813L46.75 14.1641C48.4375 12.0469 48.4375 6.35156 48.4375 6.35156L46.8078 10.0188Z" fill="#335E33"/>
<path id="Vector_10" d="M43.607 16.5172L44.1266 14.6977C43.9983 14.7389 43.8725 14.7877 43.75 14.8438L43.6406 14.8125C43.4419 15.5201 43.1723 16.2059 42.8359 16.8594C42.3281 17.875 41.75 18.875 41.4063 19.5312C41.4116 20.0631 41.3243 20.5918 41.1484 21.0938H41.4063C47.6563 21.0938 49.2188 14.0625 49.2188 14.0625L44.8266 17.3562C44.6957 17.4542 44.5374 17.5086 44.374 17.5118C44.2107 17.515 44.0504 17.467 43.9157 17.3743C43.7811 17.2817 43.6789 17.1492 43.6235 16.9954C43.5681 16.8417 43.5624 16.6744 43.607 16.5172Z" fill="#346C2F"/>
<path id="Vector_11" d="M43.1663 14.7252C43.034 14.7232 42.9042 14.6887 42.7883 14.6248C42.6724 14.5609 42.5739 14.4696 42.5015 14.3588C42.3632 14.1389 42.2825 13.8877 42.2671 13.6284C42.2079 13.0787 42.2885 12.5229 42.5015 12.0127C42.7616 11.3932 43.2226 10.7745 43.0655 10.1237C42.9553 9.82638 42.8201 9.53891 42.6616 9.2643C42.2874 8.39633 42.6616 7.41508 42.7054 6.47523C42.7428 6.10813 42.6644 5.73851 42.4812 5.4182C42.3585 5.23148 42.1835 5.0807 42.0624 4.8932C41.8163 4.51195 41.814 4.00727 41.521 3.65961C41.3587 3.50172 41.1878 3.3528 41.0093 3.21352C40.921 3.14427 40.8532 3.05224 40.8133 2.94735C40.7733 2.84245 40.7628 2.72865 40.7827 2.6182C40.8258 2.50608 40.9028 2.41021 41.003 2.34398H39.1093C39.1652 2.58445 39.2966 2.80072 39.4843 2.96117C39.7271 3.14022 39.9592 3.33326 40.1796 3.5393C40.3218 3.67113 40.4525 3.81488 40.5702 3.96898C41.1002 4.6122 41.3951 5.41688 41.4062 6.25023V19.5315C41.7499 18.8752 42.328 17.8752 42.8358 16.8596C43.1722 16.2061 43.4418 15.5203 43.6405 14.8127L43.678 14.5541C43.6624 14.562 43.6476 14.5721 43.6319 14.5799C43.4893 14.662 43.3303 14.7116 43.1663 14.7252ZM33.1327 2.16508C33.0333 2.46327 32.8659 2.73423 32.6437 2.95648C32.4214 3.17874 32.1504 3.34618 31.8522 3.44555C31.4494 3.57984 31.0989 3.83748 30.8506 4.18199C30.6023 4.5265 30.4687 4.9404 30.4687 5.36508V7.03149C30.4687 7.23869 30.3863 7.4374 30.2398 7.58391C30.0933 7.73042 29.8946 7.81274 29.6874 7.81274C29.4802 7.81274 29.2815 7.73042 29.135 7.58391C28.9885 7.4374 28.9062 7.23869 28.9062 7.03149V8.39867C28.9036 8.46417 28.9088 8.52973 28.9218 8.59399C28.9411 9.20678 29.1921 9.78944 29.6242 10.2244C30.0563 10.6594 30.6373 10.9143 31.2499 10.9377V6.54711C31.2587 6.06309 31.4154 5.59336 31.6989 5.20095C31.9824 4.80854 32.3791 4.51223 32.8358 4.3518C33.3981 4.14909 33.8656 3.74561 34.1483 3.21898C34.3288 2.89403 34.423 2.52821 34.4218 2.15648C34.4346 1.77952 34.5965 1.42305 34.8718 1.16527C35.1472 0.907496 35.5135 0.769473 35.8905 0.781485H35.0522C34.6275 0.781383 34.2136 0.91497 33.8691 1.16331C33.5245 1.41164 33.2669 1.76213 33.1327 2.16508Z" fill="#9FC73D"/>
<path id="Vector_12" d="M35.5938 17.1797C34.9563 16.5454 34.5306 15.7294 34.375 14.8438V14.0156C34.2624 13.6119 34.0712 13.2343 33.8125 12.9045C33.5538 12.5747 33.2325 12.2992 32.8672 12.0937C32.4811 11.8927 32.1171 11.6518 31.7813 11.375C31.4688 11.1328 31.25 10.9375 31.25 10.9375C30.6373 10.9141 30.0564 10.6592 29.6243 10.2242C29.1922 9.78921 28.9412 9.20655 28.9219 8.59375H28.9062C28.6311 8.59544 28.3613 8.67069 28.125 8.81172V9.14688C28.1252 9.64168 28.282 10.1237 28.5729 10.524C28.8638 10.9242 29.2739 11.2221 29.7445 11.375C30.9164 11.7578 32.3688 12.3906 32.8125 13.2812C33.225 14.4986 33.7708 15.6666 34.4398 16.7641C34.5174 16.8814 34.5616 17.0176 34.5678 17.1582C34.5739 17.2987 34.5418 17.4383 34.4748 17.562C34.4079 17.6857 34.3085 17.7889 34.1875 17.8605C34.0664 17.9321 33.9282 17.9696 33.7875 17.9688H33.5664C33.5159 19.0271 33.3415 20.076 33.0469 21.0938H37.1563C36.9867 19.6749 36.448 18.3252 35.5938 17.1797Z" fill="#4D6E15"/>
<path id="Vector_13" d="M41.4061 19.5313V15.9509C41.2349 14.9855 40.9774 14.0374 40.6366 13.1181C40.2463 12.0744 39.7848 11.0587 39.2554 10.0782C39.2382 9.7126 39.0991 5.84854 40.6804 4.12744C40.6421 4.0751 40.6116 4.01729 40.5702 3.9665C40.5288 3.91572 40.4804 3.86963 40.4366 3.81963L40.4304 3.82822C39.0679 5.22275 38.8678 7.98916 38.853 9.35244C37.5498 7.11513 36.0232 5.0156 34.2968 3.08604C34.2897 3.07822 34.2624 3.05322 34.2546 3.04619C34.2468 3.03916 34.2358 3.0376 34.228 3.02979C34.2052 3.09411 34.1792 3.15721 34.1499 3.21885C34.1186 3.27822 34.0764 3.33057 34.0405 3.3876C35.7302 5.28089 37.2255 7.33914 38.5038 9.53135C36.4166 8.32523 34.044 7.70144 31.6335 7.7251C31.6078 7.72602 31.5826 7.73199 31.5593 7.74266C31.5359 7.75332 31.5149 7.76849 31.4974 7.78728C31.4799 7.80606 31.4663 7.82811 31.4574 7.85216C31.4484 7.87621 31.4443 7.90179 31.4452 7.92744C31.4461 7.95309 31.4521 7.97831 31.4628 8.00165C31.4734 8.02499 31.4886 8.046 31.5074 8.06349C31.5262 8.08097 31.5482 8.09458 31.5723 8.10355C31.5963 8.11251 31.6219 8.11665 31.6475 8.11572C31.6843 8.11025 35.9444 7.99697 38.9272 10.2985C39.3581 11.1053 39.7423 11.9361 40.078 12.7868C37.0272 11.3899 33.021 11.8767 32.8429 11.9001C32.8141 11.9047 32.7868 11.916 32.7631 11.9331C32.7395 11.9502 32.7203 11.9726 32.7069 11.9985C32.7608 12.029 32.8147 12.0673 32.8679 12.0938C32.9575 12.1445 33.0436 12.2011 33.1257 12.2634C34.0632 12.1774 37.7061 11.9548 40.2952 13.3274C40.8659 14.8102 41.1757 16.3805 41.2108 17.9688V18.229C39.1382 16.0587 34.6319 14.7134 34.4296 14.6548C34.4108 14.6493 34.3936 14.661 34.3749 14.661V14.8438C34.377 14.9138 34.3838 14.9834 34.3952 15.0524C35.0202 15.2462 39.5139 16.6931 41.2108 18.8212V19.5313C41.2153 20.041 41.1321 20.5476 40.9647 21.029C40.9561 21.0509 40.9647 21.0712 40.9647 21.0938H41.1452C41.3222 20.5921 41.4105 20.0634 41.4061 19.5313Z" fill="#B9D671"/>
<path id="Vector_14" d="M18.75 8.59375C23.3047 8.59375 26.5625 12.5 26.5625 12.5H25.6484C19.8047 12.3828 18.75 8.59375 18.75 8.59375Z" fill="#80A100"/>
<path id="Vector_15" d="M26.5625 10.9375V12.5C26.5625 12.5 23.3047 8.59377 18.75 8.59377C19.3499 8.31465 19.9787 8.10243 20.625 7.96096C21.0421 7.8611 21.4696 7.81127 21.8984 7.81252H22.0078C24.6094 7.81252 26.2656 9.08596 26.5625 10.9375Z" fill="#A1C203"/>
<path id="Vector_16" d="M25.6483 12.5H26.7499C27.0389 12.5 27.3124 12.5156 27.5936 12.5391C30.9764 12.8203 33.5936 14.7891 33.5936 17.1875C33.5993 18.5091 33.4152 19.8246 33.0468 21.0938H18.5155C18.1471 19.8246 17.9629 18.5091 17.9686 17.1875C17.9812 16.3527 18.2852 15.5485 18.828 14.9141C19.9921 13.4688 22.2343 12.5 24.8124 12.5H25.6483Z" fill="#DB3744"/>
<path id="Vector_17" d="M30.078 19.5317H24.6093C23.6921 19.5345 22.8103 19.178 22.1528 18.5387C21.4952 17.8993 21.1141 17.0279 21.0912 16.1111C21.0682 15.1942 21.4051 14.3048 22.0298 13.6333C22.6545 12.9618 23.5173 12.5616 24.4335 12.5184C23.3842 12.508 22.3441 12.7155 21.3792 13.128C20.4143 13.5404 19.5455 14.1488 18.828 14.9145C18.2852 15.5489 17.9812 16.3531 17.9686 17.188C17.9629 18.5095 18.1471 19.825 18.5155 21.0942H33.0468C33.4152 19.825 33.5993 18.5095 33.5936 17.188C33.5916 16.9915 33.5717 16.7957 33.5343 16.6028C33.3972 17.4207 32.9749 18.1637 32.3422 18.6999C31.7095 19.236 30.9073 19.5307 30.078 19.5317Z" fill="#AD313B"/>
<path id="Vector_18" d="M28.335 13.8471C28.0147 13.9088 27.6584 14.0877 27.6154 14.4104C27.5686 14.7611 27.9092 15.0268 28.2045 15.2205C28.8484 15.6411 29.4698 16.0951 30.0662 16.5807C30.41 16.8604 30.842 17.1697 31.2561 17.0119C31.3987 16.9533 31.5205 16.8535 31.6061 16.7252C31.7032 16.5715 31.7642 16.3978 31.7845 16.2172C31.8048 16.0365 31.7838 15.8536 31.7232 15.6822C31.6251 15.3603 31.4595 15.0631 31.2373 14.8104C30.859 14.4391 30.4008 14.1593 29.8978 13.9924C29.3947 13.8254 28.8602 13.7757 28.335 13.8471Z" fill="#FF6666"/>
<path id="Vector_19" d="M25 4.6875L24.9922 4.78125C24.4764 4.71771 23.9572 4.6864 23.4375 4.6875C23.4375 4.6875 19.5312 3.90625 19.5312 1.5625H21.875C24.2188 1.5625 25 4.6875 25 4.6875Z" fill="#A1C203"/>
<path id="Vector_20" d="M28.9062 6.71878V8.39847C28.9037 8.46396 28.9089 8.52953 28.9219 8.59378H28.9062C28.4922 8.59501 28.0955 8.76003 27.8028 9.05279C27.51 9.34555 27.345 9.74226 27.3437 10.1563V11.7188C27.3273 12.0025 27.4195 12.2818 27.6016 12.5L27.5937 12.5391C27.3125 12.5157 27.0391 12.5 26.75 12.5H26.5625V10.9375C26.2656 9.08597 24.6094 7.81253 22.0078 7.81253H21.8984C21.4696 7.81128 21.0421 7.86111 20.625 7.96097C19.9787 8.10244 19.3499 8.31466 18.75 8.59378V7.03128C18.7494 6.71741 18.6571 6.41056 18.4844 6.14847C19.6328 5.10159 21.4219 4.68753 23.4375 4.68753C23.9572 4.68643 24.4764 4.71774 24.9922 4.78128C25.7419 4.82166 26.4756 5.01427 27.1485 5.34737C27.8215 5.68047 28.4195 6.14708 28.9062 6.71878Z" fill="#FF9B00"/>
<path id="Vector_21" d="M18.75 14.8438V8.59375C18.75 8.59375 19.8047 12.3828 25.6484 12.5H24.8125C22.2344 12.5 19.9922 13.4688 18.8281 14.9141L18.75 14.8438ZM28.9062 8.39844V7.8125C24.9398 7.8125 21.0156 6.63203 20.4047 5.10156C19.6961 5.3069 19.0408 5.66414 18.4844 6.14844C18.6571 6.41053 18.7494 6.71738 18.75 7.03125V8.59375C19.3499 8.31463 19.9787 8.10241 20.625 7.96094C21.0421 7.86108 21.4696 7.81125 21.8984 7.8125H22.0078C24.6094 7.8125 26.2656 9.08594 26.5625 10.9375V12.5H26.75C27.0391 12.5 27.3125 12.5156 27.5937 12.5391L27.6016 12.5C27.4195 12.2818 27.3273 12.0025 27.3437 11.7188V10.1562C27.345 9.74223 27.51 9.34552 27.8028 9.05276C28.0955 8.76 28.4922 8.59499 28.9062 8.59375H28.9219C28.9089 8.5295 28.9037 8.46393 28.9062 8.39844Z" fill="#F1671C"/>
<path id="Vector_22" d="M23.4375 4.6875C23.9572 4.6864 24.4764 4.71771 24.9922 4.78125L25 4.6875L19.5312 1.5625C19.5312 3.90625 23.4375 4.6875 23.4375 4.6875Z" fill="#88AB00"/>
<path id="Vector_23" d="M16.5937 18.9611L18.2812 21.0939H10.5078L8.5156 19.508C7.90502 19.0125 7.48277 18.3226 7.31927 17.5535C7.15578 16.7843 7.26092 15.9824 7.61716 15.2814C7.65623 15.2267 7.69529 15.1564 7.73435 15.0939C8.01611 14.6455 8.39529 14.2663 8.84373 13.9845C8.90623 13.9455 8.97654 13.9064 9.03123 13.8673C9.67485 13.5416 10.4042 13.4253 11.1172 13.5345C11.8302 13.6438 12.4912 13.9732 13.0078 14.4767C13.0971 14.5677 13.1806 14.6642 13.2578 14.7658L16.5937 18.9611Z" fill="#FF9B00"/>
<g id="Group_2">
<path id="Vector_24" d="M7.24196 14.9534L7.61696 15.2816C7.33574 15.8228 7.20871 16.4309 7.24977 17.0394L2.32008 16.6644C1.98023 16.6341 1.66201 16.4847 1.42165 16.2425L1.2029 16.0237C0.979571 15.7998 0.836674 15.5082 0.796508 15.1945C0.756343 14.8807 0.821168 14.5625 0.980867 14.2895C1.14057 14.0165 1.38615 13.8041 1.6793 13.6853C1.97245 13.5666 2.29666 13.5482 2.60133 13.6331L7.24196 14.9534Z" fill="#88AB00"/>
<path id="Vector_25" d="M9.03094 13.8678C8.97626 13.9069 8.90594 13.9459 8.84344 13.985C8.39501 14.2668 8.01583 14.6459 7.73407 15.0944C7.69501 15.1569 7.65594 15.2272 7.61688 15.2819L7.24188 14.9537L2.86688 11.2584C2.58651 10.9727 2.42944 10.5884 2.42944 10.1881C2.42944 9.78783 2.58651 9.40351 2.86688 9.11781C3.0071 8.97665 3.17385 8.86462 3.35754 8.78817C3.54123 8.71172 3.73823 8.67236 3.93719 8.67236C4.13616 8.67236 4.33316 8.71172 4.51685 8.78817C4.70054 8.86462 4.86729 8.97665 5.00751 9.11781L8.70282 13.4928L9.03094 13.8678Z" fill="#88AB00"/>
<path id="Vector_26" d="M7.74969 7.45355C7.88211 7.3199 8.0397 7.21381 8.21335 7.14141C8.387 7.06901 8.57327 7.03174 8.76141 7.03174C8.94955 7.03174 9.13582 7.06901 9.30948 7.14141C9.48313 7.21381 9.64071 7.3199 9.77313 7.45355L9.99188 7.6723C10.234 7.91267 10.3835 8.23088 10.4138 8.57074L10.7731 13.2973L10.7888 13.5004C10.1802 13.4594 9.57214 13.5864 9.03094 13.8676L8.70282 13.4926L7.38251 8.85199C7.31298 8.60736 7.31037 8.34856 7.37496 8.10258C7.43955 7.8566 7.56896 7.63246 7.74969 7.45355Z" fill="#88AB00"/>
</g>
<path id="Vector_27" d="M12.5937 19.5315C12.3163 19.5317 12.0415 19.4771 11.7852 19.371C11.5289 19.2648 11.296 19.1091 11.1 18.9128L9.23904 17.0519C8.97714 16.7912 8.78832 16.4663 8.69148 16.1096C8.59464 15.753 8.59318 15.3772 8.68725 15.0199C8.78131 14.6625 8.9676 14.3362 9.22746 14.0735C9.48733 13.8107 9.81164 13.6209 10.1679 13.5229C9.77198 13.5712 9.38738 13.6878 9.03123 13.8675C8.97654 13.9065 8.90623 13.9456 8.84373 13.9847C8.39529 14.2664 8.01611 14.6456 7.73435 15.094C7.69529 15.1565 7.65623 15.2269 7.61716 15.2815C7.26092 15.9825 7.15578 16.7845 7.31927 17.5536C7.48277 18.3228 7.90502 19.0126 8.5156 19.5081L10.5078 21.094H18.2812L17.0453 19.5315H12.5937Z" fill="#F37924"/>
<path id="Vector_28" d="M7.61707 15.2815L7.24207 14.9534L6.66785 14.7901L6.50145 15.1214C6.42814 15.2681 6.31052 15.388 6.16525 15.4642C6.01998 15.5403 5.85444 15.5688 5.69207 15.5456L1.64051 14.9667C1.47222 14.9419 1.31676 14.8625 1.19804 14.7406C1.07932 14.6188 1.00393 14.4614 0.983479 14.2925C0.822343 14.5644 0.756444 14.8822 0.796204 15.1958C0.835963 15.5093 0.979111 15.8007 1.20301 16.0237L1.42176 16.2425C1.66213 16.4846 1.98034 16.6341 2.3202 16.6644L7.24989 17.0394C7.20883 16.4308 7.33585 15.8227 7.61707 15.2815Z" fill="#628C1B"/>
<path id="Vector_29" d="M8.70306 13.4926L8.40931 13.1441L8.09681 13.3527C7.7963 13.553 7.43571 13.6429 7.07636 13.6073C6.71701 13.5717 6.38109 13.4127 6.12572 13.1574L3.69134 10.723C3.43501 10.4651 3.27709 10.1256 3.24498 9.76342C3.21287 9.40122 3.3086 9.03921 3.51556 8.74023C3.26447 8.81457 3.03692 8.9527 2.85509 9.14115C2.67327 9.3296 2.54337 9.56194 2.47806 9.81553C2.41276 10.0691 2.41427 10.3353 2.48245 10.5881C2.55064 10.841 2.68317 11.0718 2.86712 11.2582L7.24212 14.9535L7.61712 15.2816C7.65618 15.227 7.69525 15.1566 7.73431 15.0941C8.01607 14.6457 8.39525 14.2665 8.84368 13.9848C8.90618 13.9457 8.9765 13.9066 9.03118 13.8676L8.70306 13.4926Z" fill="#628C1B"/>
<path id="Vector_30" d="M10.6873 12.1722L10.2186 12.2901C10.1124 12.3167 10.0019 12.3207 9.89408 12.3019C9.78629 12.283 9.68366 12.2417 9.59284 12.1806C9.50203 12.1196 9.42505 12.0401 9.36691 11.9474C9.30876 11.8547 9.27074 11.7508 9.2553 11.6425L8.74984 8.14639C8.69957 7.76226 8.79549 7.37326 9.01859 7.05654C8.77919 7.01234 8.53249 7.02983 8.30173 7.10736C8.07097 7.18489 7.86375 7.31991 7.69961 7.49968C7.53547 7.67945 7.41981 7.89807 7.36354 8.13491C7.30726 8.37175 7.31223 8.61902 7.37796 8.85342L8.69827 13.494L9.0264 13.869C9.5676 13.5878 10.1757 13.4608 10.7842 13.5019L10.7686 13.2987L10.6873 12.1722Z" fill="#628C1B"/>
<path id="Vector_31" d="M11.374 17.3603C11.3352 17.3958 11.304 17.4389 11.2822 17.4869C11.2604 17.5348 11.2486 17.5867 11.2474 17.6393C11.2462 17.692 11.2557 17.7443 11.2752 17.7932C11.2948 17.8421 11.324 17.8865 11.3611 17.9238C11.3983 17.9612 11.4426 17.9906 11.4914 18.0103C11.5402 18.0301 11.5925 18.0398 11.6452 18.0388C11.6978 18.0378 11.7497 18.0262 11.7978 18.0046C11.8458 17.9831 11.889 17.952 11.9248 17.9134L14.0623 15.7813L13.5834 15.1782C13.5611 15.1901 13.5399 15.204 13.5201 15.2196L11.374 17.3603ZM15.1787 19.5313L16.2177 18.4884L15.7287 17.8728L14.0756 19.5313H15.1787Z" fill="#F37924"/>
<path id="Vector_32" d="M13.8092 19.7984C13.736 19.8717 13.6948 19.971 13.6948 20.0746C13.6948 20.1782 13.736 20.2775 13.8092 20.3508C13.8451 20.3871 13.888 20.4159 13.9352 20.4355C13.9824 20.4551 14.0331 20.4651 14.0842 20.4648C14.1357 20.4649 14.1867 20.4548 14.2343 20.4351C14.2819 20.4154 14.3252 20.3865 14.3615 20.35L15.1787 19.5312H14.0756L13.8092 19.7984Z" fill="#E95410"/>
<path id="Vector_33" d="M10.0514 14.5111C9.96301 14.5432 9.88415 14.5971 9.82204 14.6677C9.75992 14.7382 9.71655 14.8233 9.69589 14.915C9.69441 14.9884 9.71145 15.0609 9.74546 15.1259C9.77946 15.1909 9.82932 15.2463 9.89042 15.2869C10.0133 15.3673 10.1495 15.425 10.2928 15.4572C10.7568 15.5885 11.2264 15.7017 11.699 15.7869C11.8091 15.8248 11.927 15.8339 12.0416 15.8134C12.1562 15.7929 12.2636 15.7434 12.3537 15.6697C12.4134 15.592 12.448 15.498 12.4529 15.4002C12.4688 15.2008 12.4091 15.0029 12.2857 14.8455C11.9887 14.5741 11.6175 14.3973 11.2195 14.3377C10.8215 14.2782 10.4149 14.3385 10.0514 14.5111Z" fill="#FBCB00"/>
<path id="Vector_34" d="M13.2812 2.34375H16.4062V5.46875H13.2812V2.34375Z" fill="#30CFFF"/>
<path id="Vector_35" d="M18.75 7.03133V8.59383H10.9375V7.03133C10.9387 6.61731 11.1038 6.2206 11.3965 5.92784C11.6893 5.63508 12.086 5.47007 12.5 5.46883H17.1875C17.3933 5.46674 17.5974 5.50573 17.7879 5.58351C17.9784 5.6613 18.1515 5.77631 18.297 5.92182C18.4425 6.06733 18.5575 6.24041 18.6353 6.43092C18.7131 6.62144 18.7521 6.82556 18.75 7.03133Z" fill="#E7F5F5"/>
<path id="Vector_36" d="M18.8281 14.9141L18.75 14.8438V8.59375H10.9375V13.5195C11.7186 13.5853 12.4516 13.9242 13.0078 14.4766C13.0972 14.5675 13.1807 14.6641 13.2578 14.7656L16.5938 18.9609L18.2812 21.0938H18.5156C18.1472 19.8246 17.963 18.5091 17.9688 17.1875C17.9813 16.3527 18.2853 15.5485 18.8281 14.9141Z" fill="#30CFFF"/>
<path id="Vector_37" d="M13.2812 7.03125C13.2812 6.61685 13.4459 6.21942 13.7389 5.9264C14.0319 5.63337 14.4293 5.46875 14.8438 5.46875H12.5C12.086 5.46999 11.6893 5.635 11.3965 5.92776C11.1038 6.22052 10.9387 6.61723 10.9375 7.03125V8.59375H13.2812V7.03125Z" fill="#CEDADA"/>
<path id="Vector_38" d="M18.8281 14.9141L18.75 14.8438V12.1094C18.75 12.8346 18.4619 13.5301 17.9491 14.0429C17.4363 14.5557 16.7408 14.8438 16.0156 14.8438C15.2904 14.8438 14.5949 14.5557 14.0821 14.0429C13.5693 13.5301 13.2812 12.8346 13.2812 12.1094V8.59375H10.9375V13.5195C11.7186 13.5853 12.4516 13.9242 13.0078 14.4766C13.0972 14.5675 13.1807 14.6641 13.2578 14.7656L16.5938 18.9609L18.2812 21.0938H18.5156C18.1472 19.8246 17.963 18.5091 17.9688 17.1875C17.9813 16.3527 18.2853 15.5485 18.8281 14.9141ZM13.2812 2.34375V5.46875H16.4062V4.6875H14.8438C14.6365 4.6875 14.4378 4.60519 14.2913 4.45868C14.1448 4.31216 14.0625 4.11345 14.0625 3.90625V2.34375H13.2812Z" fill="#01A3EC"/>
<path id="Vector_39" d="M14.8438 2.34375H15.625V4.6875H14.8438V2.34375Z" fill="#01A3EC"/>
<path id="Vector_40" d="M17.9688 7.8125C17.9688 7.6053 17.8864 7.40659 17.7399 7.26007C17.5934 7.11356 17.3947 7.03125 17.1875 7.03125C16.9803 7.03125 16.7816 7.11356 16.6351 7.26007C16.4886 7.40659 16.4062 7.6053 16.4062 7.8125V8.59375H17.9688V7.8125Z" fill="white"/>
<path id="Vector_41" d="M16.4062 8.59375V11.7188C16.4062 11.926 16.4886 12.1247 16.6351 12.2712C16.7816 12.4177 16.9803 12.5 17.1875 12.5C17.3947 12.5 17.5934 12.4177 17.7399 12.2712C17.8864 12.1247 17.9688 11.926 17.9688 11.7188V8.59375H16.4062Z" fill="#99EFFF"/>
<path id="Vector_42" d="M21.875 32.0312C24.8953 32.0312 27.3438 30.9819 27.3438 29.6875C27.3438 28.3931 24.8953 27.3438 21.875 27.3438C18.8547 27.3438 16.4062 28.3931 16.4062 29.6875C16.4062 30.9819 18.8547 32.0312 21.875 32.0312Z" fill="#88AB00"/>
<path id="Vector_43" d="M38.2812 21.0938V44.5312L35.1562 49.2188V21.0938H37.1563H38.2812Z" fill="#E5AA5C"/>
<path id="Vector_44" d="M35.1562 21.0938V49.2188H10.1562L8.59375 47.6562V21.0938H35.1562ZM27.3438 29.6875C27.3438 28.3906 24.8984 27.3438 21.875 27.3438C18.8516 27.3438 16.4062 28.3906 16.4062 29.6875C16.4062 30.9844 18.8516 32.0312 21.875 32.0312C24.8984 32.0312 27.3438 30.9844 27.3438 29.6875Z" fill="#FAD27A"/>
<path id="Vector_45" d="M41.1484 21.0938H38.2812V44.5312L41.4062 47.6562V21.0938H41.1484Z" fill="#D28E43"/>
<path id="Vector_46" d="M35.1562 49.2188L41.4062 47.6562L38.2812 44.5312L35.1562 49.2188Z" fill="#A15C27"/>
<path id="Vector_47" d="M21.875 26.9531C18.5344 26.9531 16.0156 28.1289 16.0156 29.6875C16.0156 31.2461 18.5344 32.4219 21.875 32.4219C25.2156 32.4219 27.7344 31.2461 27.7344 29.6875C27.7344 28.1289 25.2156 26.9531 21.875 26.9531ZM21.875 32.0312C18.8547 32.0312 16.4062 30.982 16.4062 29.6875C16.4062 28.393 18.8547 27.3438 21.875 27.3438C24.8953 27.3438 27.3438 28.393 27.3438 29.6875C27.3438 30.982 24.8953 32.0312 21.875 32.0312Z" fill="#FAAB1B"/>
<path id="Vector_48" d="M23.4375 46.0938C20.5367 46.0938 17.7547 44.9414 15.7035 42.8902C13.6523 40.8391 12.5 38.0571 12.5 35.1562V21.0938H8.59375V47.6562L10.1562 49.2188H35.1562V46.0938H23.4375Z" fill="#F5B662"/>
</g>
</g>
</g>
<defs>
<clipPath id="clip0_58_7417">
<rect width="50" height="50" fill="white"/>
</clipPath>
</defs>
</svg>
