<svg width="16" height="16" viewBox="0 0 16 16" fill="none" xmlns="http://www.w3.org/2000/svg">
<g id="Frame" clip-path="url(#clip0_62_10225)">
<g id="Group">
<path id="Vector" d="M13.1696 10.8107C13.4037 10.7312 13.6491 10.6906 13.8963 10.6905C14.2768 10.6904 14.6512 10.7863 14.9848 10.9694C15.3184 11.1524 15.6004 11.4167 15.8047 11.7377C16.048 11.7261 16.1104 11.5836 15.7195 11.0743C15.0892 10.2529 14.2124 10.0936 13.5958 10.1019C13.5552 9.99259 13.515 9.88307 13.4754 9.77338C13.0975 8.72852 12.2488 8.23087 11.7494 8.02044L11.2679 6.61621C11.2537 6.57455 11.2312 6.53622 11.2017 6.50357C11.1721 6.47091 11.1363 6.4446 11.0963 6.42625C11.0564 6.4077 11.0131 6.39751 10.9691 6.39631C10.9251 6.39512 10.8813 6.40294 10.8404 6.41929L9.93962 6.77614C10.0321 6.81518 10.1128 6.87766 10.1738 6.95741C10.257 7.06546 10.2993 7.19951 10.293 7.33575L10.763 7.1495L12.2285 11.4237C12.4853 11.1431 12.8091 10.9322 13.1696 10.8107ZM4.45536 4.35645H0.347048C0.301463 4.35646 0.256326 4.36544 0.214214 4.3829C0.172103 4.40035 0.133842 4.42593 0.101615 4.45817C0.0693889 4.49041 0.0438284 4.52869 0.0263932 4.57081C0.00895806 4.61292 -1.0369e-05 4.65807 8.99653e-09 4.70365V8.75405C-1.03693e-05 8.79963 0.00895863 8.84476 0.0263948 8.88688C0.0438309 8.92899 0.0693926 8.96726 0.10162 8.9995C0.133847 9.03173 0.172109 9.0573 0.21422 9.07475C0.256331 9.09219 0.301466 9.10117 0.347048 9.10117H4.45536C4.50095 9.10118 4.54609 9.09221 4.58821 9.07477C4.63033 9.05733 4.66861 9.03176 4.70084 8.99952C4.73308 8.96729 4.75865 8.92902 4.77609 8.8869C4.79353 8.84478 4.8025 8.79963 4.80249 8.75405V4.70365C4.8025 4.65806 4.79353 4.61291 4.77609 4.57079C4.75865 4.52866 4.73308 4.49039 4.70085 4.45814C4.66861 4.4259 4.63034 4.40033 4.58822 4.38288C4.5461 4.36543 4.50095 4.35645 4.45536 4.35645ZM6.09783 12.3318C5.75411 11.3182 4.65401 10.7751 3.64029 11.1188C2.62664 11.4624 2.08371 12.5627 2.42736 13.5762C2.77101 14.5898 3.8711 15.1329 4.88483 14.7893C5.89839 14.4456 6.44148 13.3453 6.09783 12.3318ZM4.50838 13.679C4.108 13.8148 3.67332 13.6001 3.53749 13.1998C3.40181 12.7994 3.61635 12.3646 4.01665 12.229C4.41712 12.0932 4.8518 12.3079 4.98755 12.7081C5.1233 13.1086 4.90885 13.5433 4.50838 13.679Z" fill="white"/>
<path id="Vector_2" d="M11.8981 6.91965C11.8981 7.46756 12.3422 7.91157 12.89 7.91157C13.4379 7.91157 13.4379 5.92773 12.89 5.92773C12.3422 5.92773 11.8981 6.37174 11.8981 6.91965ZM12.0612 13.5765C12.4048 14.59 13.505 15.1331 14.5187 14.7895C15.5323 14.4458 16.0753 13.3456 15.7317 12.3319C15.3881 11.3184 14.2879 10.7753 13.2742 11.119C12.2607 11.4626 11.7176 12.563 12.0612 13.5765ZM14.1424 13.6793C13.7419 13.8151 13.3072 13.6003 13.1714 13.2001C13.0358 12.7996 13.2502 12.3649 13.6506 12.2292C14.0511 12.0934 14.4857 12.3081 14.6215 12.7084C14.7573 13.1088 14.5428 13.5435 14.1424 13.6793ZM7.17284 10.424V9.70852C7.17285 9.67435 7.16613 9.64052 7.15306 9.60895C7.13999 9.57738 7.12083 9.54869 7.09668 9.52453C7.07252 9.50037 7.04384 9.4812 7.01228 9.46812C6.98071 9.45504 6.94688 9.44831 6.91271 9.44831H1.61154C1.54255 9.44835 1.4764 9.47578 1.42762 9.52458C1.37884 9.57337 1.35143 9.63953 1.35141 9.70852V10.424C1.35141 10.493 1.37882 10.5592 1.4276 10.608C1.47638 10.6567 1.54255 10.6842 1.61154 10.6842H1.6403C1.35773 11.3775 0.921631 12.5794 0.921631 13.3945H2.04314C1.94555 12.9077 2.00995 12.4053 2.23333 11.9527C2.50113 11.4106 2.96362 11.005 3.53603 10.8111C3.81748 10.7156 4.11501 10.6764 4.41161 10.6959C4.7082 10.7154 4.99805 10.7931 5.26459 10.9247C5.53112 11.0562 5.76911 11.239 5.96496 11.4626C6.1608 11.6862 6.31066 11.9462 6.40597 12.2278C6.53359 12.6032 6.55962 13.0058 6.48143 13.3946H11.677C11.6253 13.1375 11.619 12.8733 11.6586 12.6141H7.51127C7.15269 11.8908 7.02934 11.1523 6.98849 10.6717C7.04171 10.6557 7.08836 10.6229 7.12155 10.5783C7.15474 10.5337 7.17272 10.4796 7.17284 10.424Z" fill="white"/>
<path id="Vector_3" d="M9.63589 7.88779C9.23029 7.83413 8.87004 7.74247 8.54773 7.62592H7.12011C7.12074 7.35923 7.14294 7.08796 7.17653 6.82104C6.31633 6.05883 6.06427 5.17833 6.04807 5.11883C5.96423 4.80932 6.14779 4.48929 6.45722 4.40545C6.50683 4.39196 6.558 4.3851 6.60941 4.38507C6.73654 4.38534 6.8601 4.42716 6.96126 4.50416C7.06242 4.58117 7.13562 4.68913 7.16973 4.81161C7.17668 4.83594 7.2463 5.06699 7.43831 5.36252L7.45301 5.28888C7.615 4.72698 7.40307 4.05445 6.92122 3.93443C6.43921 3.81424 5.74061 4.07603 5.45638 4.90264C5.07219 6.04153 4.98962 6.78279 5.13556 8.03697C5.29692 8.86706 5.83037 9.0168 6.31578 9.03157C6.34375 9.03489 6.37196 9.03718 6.40088 9.03718H8.2944L7.69093 11.4896C7.66531 11.5936 7.66368 11.702 7.68618 11.8067C7.70869 11.9114 7.75472 12.0096 7.82081 12.0939C7.8869 12.1782 7.9713 12.2463 8.06761 12.2931C8.16393 12.3399 8.26964 12.3642 8.37673 12.3641C8.53448 12.3639 8.68762 12.3109 8.81172 12.2135C8.93582 12.1162 9.02373 11.98 9.06143 11.8268L9.87997 8.5001C9.90555 8.39618 9.90715 8.2878 9.88466 8.18317C9.86217 8.07854 9.81617 7.98039 9.75015 7.89616C9.74881 7.89442 9.74715 7.89292 9.7458 7.89118C9.73482 7.89182 9.72391 7.89276 9.71277 7.89276C9.68706 7.89284 9.66137 7.89118 9.63589 7.88779Z" fill="white"/>
<path id="Vector_4" d="M10.16 7.37067C10.1678 7.31188 10.1639 7.25212 10.1486 7.19482C10.1333 7.13752 10.1069 7.0838 10.0708 7.03672C10.0347 6.98964 9.98972 6.95013 9.93837 6.92044C9.88703 6.89075 9.83034 6.87147 9.77154 6.86369C7.56417 6.57148 7.06643 4.92229 7.0447 4.84636C7.01089 4.73332 6.9342 4.638 6.83103 4.58077C6.72786 4.52354 6.60639 4.50895 6.49259 4.54011C6.3788 4.57127 6.28171 4.64571 6.22209 4.74752C6.16246 4.84933 6.14504 4.97042 6.17353 5.08491C6.19897 5.17863 6.82827 7.38521 9.6531 7.75913C9.77182 7.77481 9.89192 7.7427 9.98697 7.66985C10.082 7.59701 10.1443 7.48939 10.16 7.37067ZM8.76122 3.06948L9.21154 3.34391C9.259 3.25202 9.29506 3.15469 9.31893 3.05407C9.36527 2.8553 9.36277 2.64827 9.31166 2.45068H8.76122V3.06948ZM7.79411 4.00284C7.9708 4.04401 8.14725 4.04543 8.31476 4.01406L6.8824 3.17899C7.02021 3.57804 7.35256 3.90011 7.79411 4.00284Z" fill="white"/>
<path id="Vector_5" d="M8.058 1.10693C6.851 1.10693 6.61694 1.58729 6.61694 2.88042L9.21569 4.39535L9.42517 3.61948L8.63673 3.13904V2.32618H10.0163C10.0163 2.32618 9.26508 1.10693 8.058 1.10693Z" fill="white"/>
</g>
</g>
<defs>
<clipPath id="clip0_62_10225">
<rect width="16" height="16" fill="white"/>
</clipPath>
</defs>
</svg>
