<svg width="50" height="50" viewBox="0 0 50 50" fill="none" xmlns="http://www.w3.org/2000/svg">
<g id="Frame" clip-path="url(#clip0_58_8098)">
<g id="Group">
<path id="Vector" d="M25.7236 8.0291C29.4954 8.0291 33.0466 9.43213 35.7806 11.9893V9.32598C35.7807 4.17539 31.6053 0 26.4547 0H24.9927C19.8421 0 15.6667 4.17539 15.6667 9.32598V11.9894C18.4007 9.43213 21.9519 8.0291 25.7236 8.0291Z" fill="#FD4755"/>
<path id="Vector_2" d="M19.8784 9.22725C19.9267 4.58799 23.361 0.760547 27.8284 0.100977C27.3736 0.0337624 26.9145 1.28939e-05 26.4547 0L24.9927 0C19.8421 0 15.6667 4.17539 15.6667 9.32598V11.9894C16.9185 10.8186 18.3414 9.89004 19.8784 9.22725Z" fill="#FB2B3A"/>
<path id="Vector_3" d="M33.8794 36.3946C33.8794 36.282 33.971 36.1905 34.0835 36.1905H37.0802V34.9047C37.0802 34.7921 37.1718 34.7005 37.2844 34.7005H40.3898L40.432 34.6028V31.1212C40.432 29.5973 39.1966 28.3618 37.6727 28.3618H13.775C12.2511 28.3618 11.0156 29.5973 11.0156 31.1212V32.1194L11.0887 32.2171H20.7868C20.8993 32.2171 20.9909 32.3087 20.9909 32.4213V40.6057H23.9975C24.1655 40.6057 24.3021 40.7424 24.3021 40.9104V49.8698L24.3998 50.0003H33.7817L33.8794 49.8698V36.3946Z" fill="#FD4755"/>
<path id="Vector_4" d="M15.2012 32.1194V31.1212C15.2012 29.5973 16.4367 28.3618 17.9606 28.3618H13.7748C12.2508 28.3618 11.0154 29.5973 11.0154 31.1212V32.1194H15.2012Z" fill="#FB2B3A"/>
<path id="Vector_5" d="M25.863 31.3699C25.8449 31.3885 25.8232 31.4032 25.7993 31.4132C25.7754 31.4233 25.7497 31.4284 25.7237 31.4283C25.6978 31.4284 25.6721 31.4233 25.6481 31.4133C25.6242 31.4032 25.6025 31.3885 25.5844 31.3699L24.9912 30.7666V35.865C24.9912 36.2695 25.319 36.5975 25.7236 36.5975C26.1282 36.5975 26.4561 36.2695 26.4561 35.865V30.7667L25.863 31.3699Z" fill="#E41F2D"/>
<g id="Group_2">
<path id="Vector_6" d="M25.1485 30.9269L22.848 28.5869C22.6804 28.4174 22.5867 28.1884 22.5873 27.9501V25.3721L19.5635 28.3618V32.2171H20.7867C20.8992 32.2171 20.9908 32.3087 20.9908 32.4212V33.6167L25.1485 30.9269ZM28.8603 25.3721V27.9501C28.8608 28.1884 28.7671 28.4174 28.5996 28.5869L26.299 30.9269L31.4184 34.2389C31.6191 34.3687 31.8841 34.2246 31.8841 33.9854V28.3617L28.8603 25.3721Z" fill="#FB2B3A"/>
</g>
<path id="Vector_7" d="M22.4896 27.9497V25.4683L19.5635 28.3614V32.2167H20.7867C20.8992 32.2167 20.9908 32.3083 20.9908 32.4208V33.6163L21.6331 33.2008V29.3804L22.6057 28.4188C22.5295 28.2741 22.4897 28.1132 22.4896 27.9497Z" fill="#E41F2D"/>
<path id="Vector_8" d="M27.89 25.3396H23.5575C23.1919 25.3396 22.8349 25.3027 22.4895 25.2335V27.9499C22.4895 28.2138 22.5932 28.4671 22.7782 28.6553L25.5148 31.4386C25.5421 31.4663 25.5746 31.4883 25.6104 31.5034C25.6463 31.5184 25.6848 31.5262 25.7237 31.5262C25.7626 31.5262 25.8011 31.5184 25.8369 31.5034C25.8728 31.4883 25.9053 31.4663 25.9326 31.4386L28.6692 28.6552C28.8542 28.467 28.9578 28.2137 28.9579 27.9499V25.2334C28.6063 25.304 28.2486 25.3396 27.89 25.3396Z" fill="#FFBD86"/>
<path id="Vector_9" d="M25.272 27.95V25.3397H23.5574C23.1918 25.3397 22.8348 25.3028 22.4894 25.2336V27.95C22.4894 28.2139 22.5931 28.4672 22.7781 28.6554L25.5147 31.4387C25.542 31.4664 25.5745 31.4884 25.6103 31.5035C25.6462 31.5185 25.6847 31.5263 25.7236 31.5263C25.7625 31.5263 25.801 31.5185 25.8368 31.5035C25.8727 31.4884 25.9052 31.4664 25.9325 31.4387L27.1149 30.2361L25.5607 28.6554C25.3757 28.4672 25.272 28.2139 25.272 27.95ZM18.1363 19.9186V13.9834H17.9293C17.7568 14.1367 17.5887 14.295 17.4252 14.458C17.2864 14.5977 17.1212 14.7084 16.9392 14.7838C16.7573 14.8592 16.5621 14.8977 16.3652 14.8972C16.04 14.8972 15.7317 14.7929 15.4753 14.6026C14.9248 15.0746 14.5754 15.7746 14.5754 16.5566V17.515C14.5754 18.9362 15.7275 20.0883 17.1487 20.0883H18.1406C18.1388 20.0318 18.1363 19.9755 18.1363 19.9186Z" fill="#F6A96C"/>
<path id="Vector_10" d="M35.9721 14.6026C35.715 14.7942 35.4029 14.8975 35.0823 14.8971C34.8853 14.8976 34.6902 14.8591 34.5083 14.7837C34.3263 14.7084 34.1611 14.5977 34.0222 14.458C33.8588 14.295 33.6907 14.1367 33.5181 13.9834H33.3112V19.9186C33.3112 19.9755 33.3086 20.0318 33.3069 20.0884H34.2988C35.72 20.0884 36.872 18.9363 36.872 17.5151V16.5567C36.872 15.7746 36.5227 15.0746 35.9721 14.6026Z" fill="#FFBD86"/>
<path id="Vector_11" d="M25.7239 11.0259C22.8671 11.0259 20.1692 12.036 18.0388 13.8864V19.9183C18.0388 22.9662 20.5096 25.437 23.5576 25.437H27.8901C30.938 25.437 33.4088 22.9662 33.4088 19.9183V13.8864C31.2785 12.036 28.5805 11.0259 25.7239 11.0259Z" fill="#FED2A4"/>
<path id="Vector_12" d="M21.1772 19.9184V11.9336C20.0338 12.4134 18.9743 13.0727 18.0388 13.8865V19.9184C18.0388 22.9663 20.5096 25.4371 23.5576 25.4371H26.6959C23.648 25.4372 21.1772 22.9663 21.1772 19.9184Z" fill="#FFBD86"/>
<path id="Vector_13" d="M21.0886 40.6054V32.421C21.0886 32.3409 21.0568 32.2642 21.0002 32.2076C20.9436 32.1509 20.8668 32.1191 20.7867 32.1191H6.47617C6.39612 32.1191 6.31934 32.1509 6.26273 32.2076C6.20612 32.2642 6.17432 32.3409 6.17432 32.421V40.6054H21.0886Z" fill="#01C0FA"/>
<path id="Vector_14" d="M10.3877 40.6054V32.421C10.3877 32.3409 10.4195 32.2642 10.4761 32.2076C10.5327 32.1509 10.6095 32.1191 10.6896 32.1191H6.47617C6.39612 32.1191 6.31934 32.1509 6.26273 32.2076C6.20612 32.2642 6.17432 32.3409 6.17432 32.421V40.6054H10.3877Z" fill="#08A9F1"/>
<path id="Vector_15" d="M24.3998 50.0001H3.26548C3.15874 50.0001 3.05638 49.9577 2.98091 49.8822C2.90544 49.8068 2.86304 49.7044 2.86304 49.5977V40.9103C2.86304 40.8035 2.90544 40.7012 2.98091 40.6257C3.05638 40.5502 3.15874 40.5078 3.26548 40.5078H23.9973C24.104 40.5078 24.2064 40.5502 24.2819 40.6257C24.3574 40.7012 24.3998 40.8035 24.3998 40.9103V50.0001Z" fill="#FAEA5E"/>
<path id="Vector_16" d="M7.08511 49.5977V40.9103C7.08511 40.8035 7.12751 40.7012 7.20298 40.6257C7.27845 40.5502 7.38081 40.5078 7.48755 40.5078H3.26548C3.15874 40.5078 3.05638 40.5502 2.98091 40.6257C2.90544 40.7012 2.86304 40.8035 2.86304 40.9103V49.5977C2.86304 49.7044 2.90544 49.8068 2.98091 49.8822C3.05638 49.9577 3.15874 50.0001 3.26548 50.0001H7.48755C7.38081 50.0001 7.27845 49.9577 7.20298 49.8822C7.12751 49.8068 7.08511 49.7044 7.08511 49.5977Z" fill="#FFD600"/>
<path id="Vector_17" d="M8.08374 47.0198H5.72681C5.70039 47.0198 5.67423 47.0146 5.64982 47.0045C5.62541 46.9944 5.60324 46.9796 5.58456 46.9609C5.56588 46.9422 5.55106 46.92 5.54095 46.8956C5.53084 46.8712 5.52563 46.8451 5.52563 46.8187V43.4683C5.52563 43.4418 5.53084 43.4157 5.54095 43.3913C5.55106 43.3669 5.56588 43.3447 5.58456 43.326C5.60324 43.3073 5.62541 43.2925 5.64982 43.2824C5.67423 43.2723 5.70039 43.2671 5.72681 43.2671H8.08374C8.13709 43.2671 8.18826 43.2883 8.22599 43.326C8.26372 43.3637 8.28491 43.4149 8.28491 43.4683V46.8187C8.28491 46.872 8.26372 46.9232 8.22599 46.9609C8.18826 46.9986 8.13709 47.0198 8.08374 47.0198Z" fill="white"/>
<path id="Vector_18" d="M10.7131 35.7212H8.83667C8.43208 35.7212 8.10425 35.3933 8.10425 34.9888C8.10425 34.5843 8.43208 34.2563 8.83667 34.2563H10.7131C11.1177 34.2563 11.4456 34.5843 11.4456 34.9888C11.4456 35.3933 11.1177 35.7212 10.7131 35.7212ZM10.7131 38.0391H8.83667C8.43208 38.0391 8.10425 37.7111 8.10425 37.3066C8.10425 36.9021 8.43208 36.5742 8.83667 36.5742H10.7131C11.1177 36.5742 11.4456 36.9021 11.4456 37.3066C11.4456 37.7111 11.1177 38.0391 10.7131 38.0391Z" fill="#0290CF"/>
<path id="Vector_19" d="M35.0822 14.9948C34.8725 14.9951 34.6647 14.954 34.471 14.8737C34.2772 14.7934 34.1012 14.6757 33.953 14.5272C29.4152 9.98937 22.0318 9.98956 17.4943 14.5272C16.8708 15.1508 15.8596 15.1508 15.236 14.5272C14.6124 13.9035 14.6124 12.8924 15.236 12.2689C21.0189 6.48575 30.4285 6.48605 36.2114 12.2689C36.8351 12.8925 36.8351 13.9036 36.2114 14.5272C36.0633 14.6756 35.8873 14.7934 35.6935 14.8737C35.4997 14.9539 35.292 14.9951 35.0822 14.9948Z" fill="#FB2B3A"/>
<path id="Vector_20" d="M19.4522 12.2686C21.8072 9.91356 24.7637 8.51785 27.8317 8.08094C23.366 7.445 18.664 8.84061 15.236 12.2686C14.6124 12.8923 14.6124 13.9034 15.236 14.5269C15.8596 15.1506 16.8708 15.1506 17.4943 14.5269C17.9569 14.0644 18.4575 13.6417 18.9909 13.2631C19.0219 12.8874 19.1854 12.5349 19.4522 12.2686Z" fill="#E41F2D"/>
<path id="Vector_21" d="M43.0757 44.9229C43.0759 44.8024 43.1238 44.687 43.2089 44.6018C43.2941 44.5167 43.4095 44.4688 43.5299 44.4687H45.2211L45.2607 44.371V36.3946C45.2607 36.3146 45.2289 36.2378 45.1723 36.1812C45.1157 36.1246 45.0389 36.0928 44.9588 36.0928H41.9621V37.0603C41.962 37.1144 41.9405 37.1663 41.9022 37.2046C41.864 37.2428 41.8121 37.2644 41.758 37.2645H37.2842C37.2301 37.2644 37.1782 37.2429 37.1399 37.2046C37.1016 37.1663 37.0801 37.1144 37.08 37.0603V36.0928H34.0833C34.0033 36.0928 33.9265 36.1246 33.8699 36.1812C33.8133 36.2378 33.7815 36.3146 33.7815 36.3946V50.0001H42.9779L43.0755 49.8696V44.9229H43.0757Z" fill="#EA9B58"/>
<path id="Vector_22" d="M36.9824 36.0928H34.0833C34.0033 36.0928 33.9265 36.1246 33.8699 36.1812C33.8133 36.2378 33.7815 36.3146 33.7815 36.3946V50.0001H36.9615V36.3946C36.9615 36.3563 36.9693 36.3201 36.9824 36.2863V36.0928Z" fill="#D88A55"/>
<path id="Vector_23" d="M46.0333 50.0002H42.978V44.9229C42.978 44.7766 43.0362 44.6362 43.1397 44.5327C43.2432 44.4292 43.3835 44.3711 43.5299 44.3711H46.0333C46.6429 44.3711 47.137 44.8652 47.137 45.4748V48.8965C47.1371 49.5061 46.643 50.0002 46.0333 50.0002Z" fill="#FED2A4"/>
<path id="Vector_24" d="M45.247 44.3711H43.5299C43.3835 44.3711 43.2432 44.4292 43.1397 44.5327C43.0362 44.6362 42.978 44.7766 42.978 44.9229V50.0002H44.6951V44.9229C44.6951 44.8505 44.7094 44.7787 44.7371 44.7117C44.7648 44.6448 44.8055 44.5839 44.8567 44.5327C44.908 44.4815 44.9688 44.4408 45.0358 44.4131C45.1027 44.3853 45.1745 44.3711 45.247 44.3711Z" fill="#FFBD86"/>
<path id="Vector_25" d="M41.7579 37.362H37.2843C37.2446 37.362 37.2054 37.3542 37.1688 37.339C37.1321 37.3239 37.0989 37.3016 37.0708 37.2736C37.0428 37.2456 37.0206 37.2123 37.0054 37.1757C36.9902 37.139 36.9824 37.0998 36.9824 37.0602V34.9044C36.9824 34.8648 36.9902 34.8255 37.0054 34.7889C37.0206 34.7523 37.0428 34.719 37.0708 34.691C37.0989 34.6629 37.1321 34.6407 37.1688 34.6255C37.2054 34.6103 37.2446 34.6025 37.2843 34.6025H41.7579C41.838 34.6025 41.9147 34.6343 41.9714 34.691C42.028 34.7476 42.0598 34.8243 42.0598 34.9044V37.0602C42.0598 37.0998 42.052 37.1391 42.0368 37.1757C42.0216 37.2123 41.9994 37.2456 41.9714 37.2736C41.9433 37.3017 41.9101 37.3239 41.8734 37.3391C41.8368 37.3542 41.7976 37.362 41.7579 37.362Z" fill="#FAEA5E"/>
<path id="Vector_26" d="M39.0845 37.0602V34.9044C39.0845 34.8243 39.1163 34.7476 39.1729 34.691C39.2295 34.6343 39.3063 34.6025 39.3863 34.6025H37.2843C37.2042 34.6025 37.1274 34.6343 37.0708 34.691C37.0142 34.7476 36.9824 34.8243 36.9824 34.9044V37.0602C36.9824 37.1402 37.0142 37.217 37.0708 37.2736C37.1274 37.3302 37.2042 37.362 37.2843 37.362H39.3863C39.3063 37.362 39.2295 37.3302 39.1729 37.2736C39.1163 37.217 39.0845 37.1402 39.0845 37.0602Z" fill="#FFD600"/>
<path id="Vector_27" d="M22.3533 17.1307C22.159 17.1307 21.9727 17.0535 21.8354 16.9161C21.698 16.7788 21.6208 16.5925 21.6208 16.3982V15.0625C21.6208 14.658 21.9487 14.3301 22.3533 14.3301C22.7579 14.3301 23.0857 14.658 23.0857 15.0625V16.3982C23.0857 16.5925 23.0085 16.7788 22.8712 16.9161C22.7338 17.0535 22.5475 17.1307 22.3533 17.1307ZM29.0942 17.1307C28.8999 17.1307 28.7136 17.0535 28.5763 16.9161C28.4389 16.7788 28.3618 16.5925 28.3618 16.3982V15.0625C28.3618 14.658 28.6896 14.3301 29.0942 14.3301C29.4988 14.3301 29.8266 14.658 29.8266 15.0625V16.3982C29.8266 16.5925 29.7494 16.7788 29.6121 16.9161C29.4747 17.0535 29.2884 17.1307 29.0942 17.1307ZM25.7237 22.9151C24.6324 22.9151 23.541 22.4997 22.7101 21.6688C22.5738 21.5313 22.4974 21.3453 22.4979 21.1516C22.4983 20.9579 22.5755 20.7723 22.7124 20.6353C22.8494 20.4984 23.035 20.4212 23.2287 20.4208C23.4224 20.4204 23.6084 20.4967 23.7459 20.6331C24.8365 21.7236 26.6112 21.7235 27.7015 20.6331C27.8391 20.4967 28.025 20.4204 28.2187 20.4208C28.4124 20.4212 28.5981 20.4984 28.735 20.6353C28.872 20.7723 28.9492 20.9579 28.9496 21.1516C28.95 21.3453 28.8737 21.5313 28.7374 21.6688C27.9065 22.4997 26.8151 22.9151 25.7237 22.9151ZM26.4373 19.2693H25.3673C25.1731 19.2693 24.9868 19.1922 24.8494 19.0548C24.7121 18.9175 24.6349 18.7312 24.6349 18.5369V16.6358C24.6349 16.2313 24.9627 15.9034 25.3673 15.9034C25.7719 15.9034 26.0998 16.2313 26.0998 16.6358V17.8045H26.4373C26.6315 17.8045 26.8178 17.8817 26.9552 18.019C27.0925 18.1564 27.1697 18.3427 27.1697 18.5369C27.1697 18.7312 27.0925 18.9175 26.9552 19.0548C26.8178 19.1922 26.6315 19.2693 26.4373 19.2693Z" fill="#D88A55"/>
</g>
</g>
<defs>
<clipPath id="clip0_58_8098">
<rect width="50" height="50" fill="white"/>
</clipPath>
</defs>
</svg>
