<svg width="50" height="50" viewBox="0 0 50 50" fill="none" xmlns="http://www.w3.org/2000/svg">
<g id="Frame" clip-path="url(#clip0_58_8000)">
<g id="Group">
<path id="Vector" d="M12.3036 21.4524C12.4724 21.4813 12.6498 21.4753 12.8261 21.4286C13.4829 21.2546 13.8744 20.581 13.7002 19.9241L9.94103 5.73996C9.89662 5.57225 9.81722 5.41582 9.70806 5.28097C9.59889 5.14613 9.46243 5.0359 9.30763 4.95754L3.33488 1.93332C2.72844 1.6262 1.9883 1.86897 1.68127 2.47522C1.37433 3.08147 1.61701 3.8218 2.22316 4.12873L7.70373 6.90373L11.3216 20.5545C11.4489 21.0351 11.8438 21.3735 12.3036 21.4524Z" fill="#FFE477"/>
<path id="Vector_2" d="M11.327 10.9692L13.7003 19.9245C13.8745 20.5813 13.4832 21.255 12.8263 21.429C12.65 21.4757 12.4726 21.4817 12.3039 21.4527C11.844 21.3738 11.4491 21.0354 11.3218 20.5548L9.09399 12.1489C9.09399 12.1489 9.63481 11.2041 11.327 10.9692Z" fill="#FFD422"/>
<path id="Vector_3" d="M20.7753 20.1058L20.9117 17.0718C21.0153 14.7679 19.1299 14.7432 19.1299 14.7432H2.1009C2.1009 14.7432 0.215537 14.7679 0.319053 17.0718L1.60548 45.6829C1.60578 45.6913 1.69943 48.03 3.84768 48.03H17.3832C19.5313 48.03 19.625 45.6913 19.6254 45.6829L20.5975 24.0643" fill="#D1E7F8"/>
<path id="Vector_4" d="M4.78294 45.6829L3.49651 17.0718C3.39289 14.7679 5.27835 14.7432 5.27835 14.7432H2.1009C2.1009 14.7432 0.215537 14.7679 0.319053 17.0718L1.60548 45.6829C1.60578 45.6913 1.69943 48.03 3.84768 48.03H7.02513C4.87688 48.0299 4.78323 45.6913 4.78294 45.6829Z" fill="#B9D8F4"/>
<path id="Vector_5" d="M4.17465 44.0787C4.17465 44.0787 4.23558 45.496 5.40951 45.496H16.0663C17.2401 45.496 17.3012 44.0787 17.3012 44.0787L18.331 20.9368C18.4016 19.368 16.9666 19.3584 16.9666 19.3584H4.50931C4.50931 19.3584 3.07425 19.368 3.14486 20.9368L4.17465 44.0787Z" fill="#FFE477"/>
<path id="Vector_6" d="M8.45298 40.9307C7.27915 40.9307 7.21811 39.5134 7.21811 39.5134L6.32124 19.3584H4.50932C4.50932 19.3584 3.07425 19.368 3.14486 20.9368L4.17474 44.0787C4.17474 44.0787 4.23568 45.496 5.40961 45.496H16.0664C17.2402 45.496 17.3013 44.0787 17.3013 44.0787L17.4414 40.9307H8.45308L8.45298 40.9307Z" fill="#FFD422"/>
<path id="Vector_7" d="M10.1777 26.4414C10.5275 26.4414 10.811 26.1579 10.811 25.8081C10.811 25.4583 10.5275 25.1748 10.1777 25.1748C9.82797 25.1748 9.54443 25.4583 9.54443 25.8081C9.54443 26.1579 9.82797 26.4414 10.1777 26.4414Z" fill="#FFD422"/>
<path id="Vector_8" d="M8.41504 23.5737C8.80363 23.5737 9.11865 23.2587 9.11865 22.8701C9.11865 22.4815 8.80363 22.1665 8.41504 22.1665C8.02644 22.1665 7.71143 22.4815 7.71143 22.8701C7.71143 23.2587 8.02644 23.5737 8.41504 23.5737Z" fill="#FFD422"/>
<path id="Vector_9" d="M13.5229 22.8276C13.8727 22.8276 14.1563 22.5441 14.1563 22.1943C14.1563 21.8446 13.8727 21.561 13.5229 21.561C13.1732 21.561 12.8896 21.8446 12.8896 22.1943C12.8896 22.5441 13.1732 22.8276 13.5229 22.8276Z" fill="#FFD422"/>
<path id="Vector_10" d="M15.4246 25.4351C15.8132 25.4351 16.1282 25.12 16.1282 24.7314C16.1282 24.3429 15.8132 24.0278 15.4246 24.0278C15.036 24.0278 14.7209 24.3429 14.7209 24.7314C14.7209 25.12 15.036 25.4351 15.4246 25.4351Z" fill="#FFD422"/>
<path id="Vector_11" d="M12.5291 43.2598C14.1576 43.2598 15.4778 41.9396 15.4778 40.311C15.4778 38.6825 14.1576 37.3623 12.5291 37.3623C10.9005 37.3623 9.58032 38.6825 9.58032 40.311C9.58032 41.9396 10.9005 43.2598 12.5291 43.2598Z" fill="#FFA733"/>
<path id="Vector_12" d="M9.42153 38.6482C11.3529 38.6482 12.9185 37.0826 12.9185 35.1513C12.9185 33.2199 11.3529 31.6543 9.42153 31.6543C7.49021 31.6543 5.92456 33.2199 5.92456 35.1513C5.92456 37.0826 7.49021 38.6482 9.42153 38.6482Z" fill="#FFA733"/>
<path id="Vector_13" d="M35.9531 20.5237C35.7819 20.5237 35.608 20.4878 35.4421 20.4119C34.8241 20.1293 34.5523 19.3992 34.8349 18.7813L40.9377 5.43679C41.0098 5.279 41.1145 5.13826 41.2449 5.02379C41.3753 4.90933 41.5284 4.82374 41.6942 4.77263L48.0921 2.80153C48.7419 2.60124 49.4302 2.96569 49.6303 3.61511C49.8303 4.26452 49.4661 4.95319 48.8168 5.15319L42.946 6.96188L37.0725 19.8047C36.8661 20.2569 36.4196 20.5237 35.9531 20.5237Z" fill="#FFE477"/>
<path id="Vector_14" d="M38.688 10.3564L34.835 18.7816C34.5522 19.3997 34.8241 20.1297 35.4422 20.4122C35.6025 20.4858 35.7768 20.5239 35.9531 20.524C36.4197 20.524 36.8661 20.2571 37.0728 19.805L40.6895 11.8965C40.6896 11.8966 40.3161 10.8739 38.688 10.3564Z" fill="#FFD422"/>
<path id="Vector_15" d="M46.8496 20.1058L46.986 17.0718C47.0896 14.7679 45.2042 14.7432 45.2042 14.7432H28.1751C28.1751 14.7432 26.2898 14.7679 26.3933 17.0718L27.6797 45.6829C27.68 45.6913 27.7736 48.03 29.9219 48.03H43.4574C45.6056 48.03 45.6992 45.6913 45.6996 45.6829L46.6717 24.0643" fill="#D1E7F8"/>
<path id="Vector_16" d="M30.8572 45.6829L29.5707 17.0718C29.4671 14.7679 31.3526 14.7432 31.3526 14.7432H28.1751C28.1751 14.7432 26.2898 14.7679 26.3933 17.0718L27.6797 45.6829C27.68 45.6913 27.7736 48.03 29.9219 48.03H33.0994C30.9511 48.0299 30.8574 45.6913 30.8572 45.6829Z" fill="#B9D8F4"/>
<path id="Vector_17" d="M30.2489 44.0787C30.2489 44.0787 30.3098 45.496 31.4837 45.496H42.1405C43.3143 45.496 43.3754 44.0787 43.3754 44.0787L44.4053 20.9368C44.4758 19.368 43.0408 19.3584 43.0408 19.3584H30.5835C30.5835 19.3584 29.1485 19.368 29.2191 20.9368L30.2489 44.0787Z" fill="#A4E276"/>
<path id="Vector_18" d="M34.5274 40.9307C33.3536 40.9307 33.2925 39.5135 33.2925 39.5135L32.3956 19.3584H30.5835C30.5835 19.3584 29.1485 19.368 29.2191 20.9368L30.249 44.0787C30.249 44.0787 30.3099 45.496 31.4838 45.496H42.1406C43.3144 45.496 43.3755 44.0787 43.3755 44.0787L43.5156 40.9307H34.5274Z" fill="#7ED63E"/>
<path id="Vector_19" d="M36.4231 24.6606C36.7729 24.6606 37.0564 24.3771 37.0564 24.0273C37.0564 23.6776 36.7729 23.394 36.4231 23.394C36.0733 23.394 35.7898 23.6776 35.7898 24.0273C35.7898 24.3771 36.0733 24.6606 36.4231 24.6606Z" fill="#7ED63E"/>
<path id="Vector_20" d="M38.9822 27.0303C39.3708 27.0303 39.6858 26.7153 39.6858 26.3267C39.6858 25.9381 39.3708 25.623 38.9822 25.623C38.5936 25.623 38.2786 25.9381 38.2786 26.3267C38.2786 26.7153 38.5936 27.0303 38.9822 27.0303Z" fill="#7ED63E"/>
<path id="Vector_21" d="M39.5974 22.8276C39.9472 22.8276 40.2307 22.5441 40.2307 22.1943C40.2307 21.8446 39.9472 21.561 39.5974 21.561C39.2477 21.561 38.9641 21.8446 38.9641 22.1943C38.9641 22.5441 39.2477 22.8276 39.5974 22.8276Z" fill="#7ED63E"/>
<path id="Vector_22" d="M41.498 25.4351C41.8866 25.4351 42.2017 25.12 42.2017 24.7314C42.2017 24.3429 41.8866 24.0278 41.498 24.0278C41.1095 24.0278 40.7944 24.3429 40.7944 24.7314C40.7944 25.12 41.1095 25.4351 41.498 25.4351Z" fill="#7ED63E"/>
<path id="Vector_23" d="M38.2854 43.2598C39.9139 43.2598 41.2341 41.9396 41.2341 40.311C41.2341 38.6825 39.9139 37.3623 38.2854 37.3623C36.6569 37.3623 35.3367 38.6825 35.3367 40.311C35.3367 41.9396 36.6569 43.2598 38.2854 43.2598Z" fill="#5EAC24"/>
<path id="Vector_24" d="M34.8332 39.8675C36.7645 39.8675 38.3301 38.3018 38.3301 36.3705C38.3301 34.4392 36.7645 32.8735 34.8332 32.8735C32.9018 32.8735 31.3362 34.4392 31.3362 36.3705C31.3362 38.3018 32.9018 39.8675 34.8332 39.8675Z" fill="#5EAC24"/>
<path id="Vector_25" d="M24.0068 19.6287C23.8178 19.6287 23.6257 19.589 23.4426 19.5053C22.7602 19.1933 22.4599 18.3873 22.7722 17.7049L29.5107 2.97028C29.5903 2.79604 29.706 2.64062 29.8499 2.51423C29.9939 2.38785 30.163 2.29336 30.3461 2.23698L37.4106 0.0606153C38.128 -0.160381 38.888 0.241865 39.1089 0.958955C39.3297 1.67605 38.9276 2.4364 38.2106 2.6572L31.7283 4.65427L25.2431 18.8349C25.015 19.334 24.5221 19.6287 24.0068 19.6287Z" fill="#FFE477"/>
<path id="Vector_26" d="M27.0268 8.40186L22.7724 17.7048C22.4602 18.3872 22.7604 19.1933 23.4428 19.5053C23.6197 19.5865 23.8122 19.6286 24.0069 19.6286C24.5221 19.6286 25.015 19.3339 25.2432 18.8348L29.2367 10.1024C29.2368 10.1023 28.8245 8.97314 27.0268 8.40186Z" fill="#FFD422"/>
<path id="Vector_27" d="M34.7569 19.1669L34.9075 15.8168C35.0219 13.2729 32.94 13.2456 32.94 13.2456H14.1371C14.1371 13.2456 12.0552 13.2729 12.1696 15.8168L13.5901 47.4084C13.5904 47.4176 13.6938 49.9999 16.0658 49.9999H31.0113C33.3832 49.9999 33.4867 47.4176 33.487 47.4084L34.5603 23.5376" fill="#D1E7F8"/>
<path id="Vector_28" d="M17.0985 47.4084L15.678 15.8168C15.5635 13.2729 17.6455 13.2456 17.6455 13.2456H14.1371C14.1371 13.2456 12.0552 13.2729 12.1696 15.8168L13.5901 47.4084C13.5904 47.4176 13.6938 49.9999 16.0658 49.9999H19.5742C17.2022 49.9999 17.0988 47.4177 17.0985 47.4084Z" fill="#B9D8F4"/>
<path id="Vector_29" d="M16.4271 45.6373C16.4271 45.6373 16.4945 47.2023 17.7907 47.2023H29.5577C30.8538 47.2023 30.9212 45.6373 30.9212 45.6373L32.0584 20.0846C32.1362 18.3522 30.5517 18.3418 30.5517 18.3418H16.7968C16.7968 18.3418 15.2123 18.3523 15.2901 20.0846L16.4271 45.6373Z" fill="#FF3F62"/>
<path id="Vector_30" d="M21.1511 42.1614C19.855 42.1614 19.7875 40.5965 19.7875 40.5965L18.7971 18.3418H16.7963C16.7963 18.3418 15.2118 18.3523 15.2896 20.0846L16.4268 45.6373C16.4268 45.6373 16.4941 47.2023 17.7903 47.2023H29.5573C30.8534 47.2023 30.9209 45.6373 30.9209 45.6373L31.0754 42.1614H21.1511Z" fill="#FF0C38"/>
<path id="Vector_31" d="M21.588 23.0305C21.9742 23.0305 22.2873 22.7174 22.2873 22.3312C22.2873 21.9449 21.9742 21.6318 21.588 21.6318C21.2018 21.6318 20.8887 21.9449 20.8887 22.3312C20.8887 22.7174 21.2018 23.0305 21.588 23.0305Z" fill="#FF0C38"/>
<path id="Vector_32" d="M25.8994 23.1688C26.3285 23.1688 26.6764 22.821 26.6764 22.3918C26.6764 21.9626 26.3285 21.6147 25.8994 21.6147C25.4702 21.6147 25.1223 21.9626 25.1223 22.3918C25.1223 22.821 25.4702 23.1688 25.8994 23.1688Z" fill="#FF0C38"/>
<path id="Vector_33" d="M23.6881 25.9567C24.0743 25.9567 24.3874 25.6436 24.3874 25.2574C24.3874 24.8712 24.0743 24.5581 23.6881 24.5581C23.3019 24.5581 22.9888 24.8712 22.9888 25.2574C22.9888 25.6436 23.3019 25.9567 23.6881 25.9567Z" fill="#FF0C38"/>
<path id="Vector_34" d="M28.8491 25.0512C29.2782 25.0512 29.6261 24.7033 29.6261 24.2741C29.6261 23.845 29.2782 23.4971 28.8491 23.4971C28.4199 23.4971 28.072 23.845 28.072 24.2741C28.072 24.7033 28.4199 25.0512 28.8491 25.0512Z" fill="#FF0C38"/>
<path id="Vector_35" d="M23.4962 44.0773C26.2258 44.0773 28.4387 41.8645 28.4387 39.1349C28.4387 36.4052 26.2258 34.1924 23.4962 34.1924C20.7665 34.1924 18.5537 36.4052 18.5537 39.1349C18.5537 41.8645 20.7665 44.0773 23.4962 44.0773Z" fill="#D80027"/>
<path id="Vector_36" d="M25.6067 35.8398C27.7392 35.8398 29.468 34.1111 29.468 31.9785C29.468 29.846 27.7392 28.1172 25.6067 28.1172C23.4741 28.1172 21.7454 29.846 21.7454 31.9785C21.7454 34.1111 23.4741 35.8398 25.6067 35.8398Z" fill="#D80027"/>
</g>
</g>
<defs>
<clipPath id="clip0_58_8000">
<rect width="50" height="50" fill="white"/>
</clipPath>
</defs>
</svg>
