<svg width="50" height="50" viewBox="0 0 50 50" fill="none" xmlns="http://www.w3.org/2000/svg">
<g id="Frame" clip-path="url(#clip0_58_7746)">
<g id="Group">
<path id="Vector" d="M36.6667 7.08301L32.6434 43.7497H16.5233L12.5 7.08301H36.6667Z" fill="#4482C3"/>
<path id="Vector_2" d="M15.0001 0.416504H34.1668C35.0873 0.416504 35.8335 1.1627 35.8335 2.0832V5.4165H13.3335V2.08311C13.3334 1.1627 14.0796 0.416504 15.0001 0.416504Z" fill="#E6E7E8"/>
<path id="Vector_3" d="M12.5001 3.75H36.6668C37.5873 3.75 38.3335 4.49619 38.3335 5.4167V7.0834C38.3335 7.3044 38.2457 7.51636 38.0894 7.67263C37.9332 7.82891 37.7212 7.9167 37.5002 7.9167H11.6668C11.4458 7.9167 11.2338 7.82891 11.0776 7.67263C10.9213 7.51636 10.8335 7.3044 10.8335 7.0834V5.4167C10.8334 4.49619 11.5796 3.75 12.5001 3.75Z" fill="#D1D4D1"/>
<path id="Vector_4" d="M31.6667 34.583V42.083H27.8417C27.6233 42.0847 27.4141 42.1714 27.2584 42.3247L23.3333 46.2497L19.4083 42.3247C19.2526 42.1714 19.0435 42.0847 18.825 42.083H5V34.583H31.6667Z" fill="#14A085"/>
<path id="Vector_5" d="M31.6666 31.2582C31.6197 31.2512 31.5723 31.2485 31.5249 31.2499H4.99988C4.65627 31.2501 4.3164 31.3212 4.00148 31.4586C3.68657 31.5961 3.40337 31.797 3.16956 32.0488C2.93574 32.3006 2.75634 32.5978 2.64255 32.9221C2.52876 33.2463 2.48301 33.5905 2.50818 33.9332C2.65115 35.272 3.79529 36.2787 5.14148 36.2499H31.6665C32.0101 36.2496 32.35 36.1785 32.6649 36.0411C32.9798 35.9036 33.263 35.7027 33.4968 35.4509C33.7306 35.1992 33.91 34.9019 34.0238 34.5777C34.1376 34.2534 34.1833 33.9092 34.1582 33.5666C34.0238 32.2812 32.9584 31.2942 31.6666 31.2582Z" fill="#804537"/>
<path id="Vector_6" d="M31.6667 25.4165V31.2582C31.6198 31.2513 31.5724 31.2485 31.525 31.2499H19.5083C19.2899 31.2516 19.0807 31.3383 18.925 31.4916L14.1667 36.2498L9.4084 31.4915C9.25275 31.3382 9.04355 31.2515 8.8251 31.2498H5V25.4165H31.6667Z" fill="#F0C419"/>
<path id="Vector_7" d="M33.3333 27.083H3.3333C3.22387 27.083 3.11551 27.0615 3.01441 27.0196C2.91331 26.9777 2.82145 26.9163 2.74407 26.8389C2.66669 26.7616 2.60531 26.6697 2.56343 26.5686C2.52155 26.4675 2.5 26.3591 2.5 26.2497V25.4164C2.50005 23.2063 3.37805 21.0867 4.94085 19.5239C6.50366 17.9611 8.62326 17.0831 10.8334 17.083H25.8334C30.4357 17.083 34.1667 20.814 34.1667 25.4163V26.2496C34.1667 26.4706 34.0789 26.6826 33.9226 26.8389C33.7663 26.9952 33.5543 27.083 33.3333 27.083ZM34.1667 41.2497V43.7497C34.1667 46.5111 31.9281 48.7497 29.1667 48.7497H7.5C4.73857 48.7497 2.5 46.5111 2.5 43.7497V41.2497C2.5 41.0287 2.58779 40.8167 2.74407 40.6605C2.90034 40.5042 3.1123 40.4164 3.3333 40.4164H18.825C19.0434 40.4181 19.2526 40.5048 19.4083 40.6581L23.3333 44.5831L27.2583 40.6581C27.414 40.5048 27.6232 40.4181 27.8416 40.4164H33.3333C33.4427 40.4164 33.5511 40.4379 33.6522 40.4798C33.7533 40.5217 33.8452 40.5831 33.9226 40.6604C34 40.7378 34.0614 40.8297 34.1033 40.9308C34.1451 41.0319 34.1667 41.1403 34.1667 41.2497Z" fill="#F29C1F"/>
<path id="Vector_8" d="M11.6666 20.4165H10.8333C10.6123 20.4165 10.4003 20.5043 10.2441 20.6606C10.0878 20.8168 10 21.0288 10 21.2498C10 21.4708 10.0878 21.6828 10.2441 21.839C10.4003 21.9953 10.6123 22.0831 10.8333 22.0831H11.6666C11.8876 22.0831 12.0996 21.9953 12.2558 21.839C12.4121 21.6828 12.4999 21.4708 12.4999 21.2498C12.4999 21.0288 12.4121 20.8168 12.2558 20.6606C12.0996 20.5043 11.8876 20.4165 11.6666 20.4165ZM16.6666 22.0831H15.8333C15.6123 22.0831 15.4003 22.1709 15.2441 22.3272C15.0878 22.4834 15 22.6954 15 22.9164C15 23.1374 15.0878 23.3494 15.2441 23.5056C15.4003 23.6619 15.6123 23.7497 15.8333 23.7497H16.6666C16.8876 23.7497 17.0996 23.6619 17.2558 23.5056C17.4121 23.3494 17.4999 23.1374 17.4999 22.9164C17.4999 22.6954 17.4121 22.4834 17.2558 22.3272C17.0996 22.1709 16.8876 22.0831 16.6666 22.0831ZM26.6666 22.0831H25.8333C25.6123 22.0831 25.4003 22.1709 25.2441 22.3272C25.0878 22.4834 25 22.6954 25 22.9164C25 23.1374 25.0878 23.3494 25.2441 23.5056C25.4003 23.6619 25.6123 23.7497 25.8333 23.7497H26.6666C26.8876 23.7497 27.0996 23.6619 27.2558 23.5056C27.4121 23.3494 27.4999 23.1374 27.4999 22.9164C27.4999 22.6954 27.4121 22.4834 27.2558 22.3272C27.0996 22.1709 26.8876 22.0831 26.6666 22.0831ZM21.6666 20.4165H20.8333C20.6123 20.4165 20.4003 20.5043 20.2441 20.6606C20.0878 20.8168 20 21.0288 20 21.2498C20 21.4708 20.0878 21.6828 20.2441 21.839C20.4003 21.9953 20.6123 22.0831 20.8333 22.0831H21.6666C21.8876 22.0831 22.0996 21.9953 22.2558 21.839C22.4121 21.6828 22.4999 21.4708 22.4999 21.2498C22.4999 21.0288 22.4121 20.8168 22.2558 20.6606C22.0996 20.5043 21.8876 20.4165 21.6666 20.4165Z" fill="#E57E25"/>
<path id="Vector_9" d="M24.1666 27.0998C24.0666 27.0915 23.9749 27.0831 23.8749 27.0831H23.1582C23.0632 27.0829 22.9694 27.1032 22.8831 27.1428C22.7968 27.1824 22.7201 27.2402 22.6583 27.3123C22.5965 27.3844 22.5511 27.469 22.5252 27.5604C22.4993 27.6517 22.4935 27.7476 22.5082 27.8414L25.7074 48.7498H44.2824L47.4907 27.8331C47.5045 27.7392 47.4977 27.6434 47.4708 27.5524C47.4439 27.4613 47.3975 27.3773 47.3349 27.3059C47.2723 27.2346 47.1949 27.1777 47.1082 27.1392C47.0214 27.1008 46.9273 27.0816 46.8324 27.0831H46.1241C45.741 27.083 45.3606 27.1478 44.9991 27.2748L24.1666 27.0998Z" fill="#E64C3C"/>
<path id="Vector_10" d="M36.674 34.175C35.2678 34.4014 33.8303 34.339 32.449 33.9917L32.4999 33.75V19.4C32.5001 19.2277 32.5687 19.0625 32.6905 18.9406C32.8124 18.8188 32.9776 18.7502 33.1499 18.75H36.0166C36.1889 18.7502 36.3541 18.8188 36.476 18.9406C36.5978 19.0625 36.6664 19.2277 36.6666 19.4V34.1167L36.674 34.175ZM28.3332 23.75V31.4583C27.7454 30.7615 27.2753 29.9733 26.9415 29.125C26.7118 28.5636 26.3307 28.0771 25.8407 27.7196C25.3508 27.362 24.7712 27.1475 24.1665 27.1V24.4C24.1667 24.2277 24.2353 24.0625 24.3571 23.9406C24.479 23.8188 24.6442 23.7502 24.8165 23.75H28.3332Z" fill="#F0C419"/>
<path id="Vector_11" d="M32.5001 20.4165V33.7498L32.4501 33.9915H32.4418C30.836 33.6099 29.3955 32.7217 28.3335 31.4582V21.0665C28.3337 20.8942 28.4023 20.729 28.5241 20.6071C28.646 20.4853 28.8112 20.4167 28.9835 20.4165H32.5001ZM40.9168 32.2165C39.7281 33.275 38.2517 33.9566 36.6751 34.1748L36.6668 34.1165V20.4165H40.0001C40.2211 20.4165 40.4331 20.5043 40.5893 20.6606C40.7456 20.8168 40.8334 21.0288 40.8334 21.2498V32.1165L40.9168 32.2165Z" fill="#F3D55B"/>
<path id="Vector_12" d="M45.0001 23.5665V27.2748C44.5635 27.4273 44.1644 27.6712 43.8295 27.9902C43.4947 28.3092 43.2318 28.696 43.0584 29.1248C42.5977 30.3074 41.8672 31.3661 40.9251 32.2165H40.9168L40.8335 32.1165V22.9165H44.3502C44.5225 22.9167 44.6877 22.9853 44.8095 23.1071C44.9314 23.229 44.9999 23.3942 45.0001 23.5665Z" fill="#F0C419"/>
<path id="Vector_13" d="M34.5825 45.4165C36.6536 45.4165 38.3325 43.7376 38.3325 41.6665C38.3325 39.5954 36.6536 37.9165 34.5825 37.9165C32.5115 37.9165 30.8325 39.5954 30.8325 41.6665C30.8325 43.7376 32.5115 45.4165 34.5825 45.4165Z" fill="#E6E7E8"/>
<path id="Vector_14" d="M49.1667 49.5831H0.833301C0.612296 49.5831 0.400342 49.4953 0.244068 49.339C0.0877939 49.1828 0 48.9708 0 48.7498C0 48.5288 0.0877939 48.3168 0.244068 48.1606C0.400342 48.0043 0.612296 47.9165 0.833301 47.9165H49.1666C49.3876 47.9165 49.5996 48.0043 49.7558 48.1606C49.9121 48.3168 49.9999 48.5288 49.9999 48.7498C49.9999 48.8592 49.9784 48.9676 49.9365 49.0687C49.8947 49.1698 49.8333 49.2617 49.7559 49.3391C49.6786 49.4164 49.5867 49.4778 49.4856 49.5197C49.3845 49.5616 49.2761 49.5831 49.1667 49.5831Z" fill="#804537"/>
</g>
</g>
<defs>
<clipPath id="clip0_58_7746">
<rect width="50" height="50" fill="white"/>
</clipPath>
</defs>
</svg>
