<svg width="50" height="50" viewBox="0 0 50 50" fill="none" xmlns="http://www.w3.org/2000/svg">
<g id="Frame">
<g id="Group">
<path id="Vector" d="M45.5945 20.6382C45.0886 20.3347 44.488 20.2294 43.909 20.3428C43.3299 20.4562 42.8134 20.7803 42.4594 21.2523L38.0766 27.096C37.2057 28.2573 35.9177 29.0347 34.4844 29.264L19.5312 31.2499L29.8227 27.1171C30.1596 26.9937 30.4491 26.7674 30.6503 26.4703C30.8515 26.1732 30.9542 25.8203 30.9438 25.4617C30.9309 25.2086 30.8605 24.9617 30.7378 24.74C30.6151 24.5182 30.4435 24.3273 30.2359 24.1819C30.0284 24.0365 29.7904 23.9404 29.54 23.9009C29.2897 23.8614 29.0337 23.8795 28.7914 23.9539L15.1141 28.1593C14.2853 28.3961 13.5113 28.7938 12.8362 29.3297C12.1612 29.8657 11.5983 30.5293 11.1797 31.2828L8.59375 35.9374L4.6875 47.6562H16.4062L16.9938 42.9546C17.0516 42.4909 17.2396 42.0531 17.5358 41.6917C17.8321 41.3303 18.2246 41.0601 18.668 40.9124L38.5367 34.2898C39.8788 33.8422 41.0015 32.9029 41.6789 31.6609L46.4031 23.9265C46.5673 23.6578 46.6766 23.3593 46.7248 23.0481C46.773 22.7369 46.7592 22.4193 46.684 22.1135C46.6088 21.8078 46.4738 21.5199 46.2869 21.2666C46.0999 21.0132 45.8646 20.8002 45.5945 20.6382Z" fill="#EFCB9A"/>
<path id="Vector_2" d="M43.2868 11.2681L39.8727 14.6821C39.2688 15.2861 38.4496 15.6254 37.5954 15.6254C36.7412 15.6254 35.9221 15.2861 35.3181 14.6821C34.7141 14.0781 34.3748 13.259 34.3748 12.4048C34.3748 11.5506 34.7141 10.7314 35.3181 10.1274L38.7321 6.71338L43.2868 11.2681Z" fill="white"/>
<path id="Vector_3" d="M43.2915 11.2641L46.7134 7.84223C47.3174 7.23824 47.6567 6.41906 47.6567 5.56489C47.6567 4.71072 47.3174 3.89153 46.7134 3.28755C46.1094 2.68356 45.2902 2.34424 44.436 2.34424C43.5819 2.34424 42.7627 2.68356 42.1587 3.28755L38.7368 6.70942L43.2915 11.2641Z" fill="#FD614B"/>
<path id="Vector_4" d="M11.2657 6.71089L6.71101 11.2656L3.28913 7.8437C2.68514 7.23971 2.34583 6.42052 2.34583 5.56635C2.34583 4.71218 2.68514 3.893 3.28913 3.28901C3.89312 2.68502 4.71231 2.3457 5.56648 2.3457C6.42065 2.3457 7.23983 2.68502 7.84382 3.28901L11.2657 6.71089Z" fill="#FECD0D"/>
<path id="Vector_5" d="M14.6813 10.1265L11.2672 6.7124L6.71252 11.2671L10.1266 14.6812C10.7306 15.2851 11.5498 15.6245 12.4039 15.6245C13.2581 15.6245 14.0773 15.2851 14.6813 14.6812C15.2853 14.0772 15.6246 13.258 15.6246 12.4038C15.6246 11.5496 15.2853 10.7305 14.6813 10.1265Z" fill="white"/>
<path id="Vector_6" d="M25 11.7188C27.5888 11.7188 29.6875 9.62008 29.6875 7.03125C29.6875 4.44242 27.5888 2.34375 25 2.34375C22.4112 2.34375 20.3125 4.44242 20.3125 7.03125C20.3125 9.62008 22.4112 11.7188 25 11.7188Z" fill="#8CE2FF"/>
<path id="Vector_7" d="M21.686 10.4492L28.3149 3.82031L21.686 10.4492Z" fill="#8CE2FF"/>
<path id="Vector_8" d="M20.3125 14.8438C19.4837 14.8438 18.6888 15.173 18.1028 15.759C17.5167 16.3451 17.1875 17.1399 17.1875 17.9688C17.1875 18.7976 17.5167 19.5924 18.1028 20.1785C18.6888 20.7645 19.4837 21.0938 20.3125 21.0938H25V14.8438H20.3125Z" fill="white"/>
<path id="Vector_9" d="M29.6875 14.8438H25V21.0938H29.6875C30.5163 21.0938 31.3112 20.7645 31.8972 20.1785C32.4833 19.5924 32.8125 18.7976 32.8125 17.9688C32.8125 17.1399 32.4833 16.3451 31.8972 15.759C31.3112 15.173 30.5163 14.8438 29.6875 14.8438Z" fill="#27AE60"/>
<path id="Vector_10" d="M10.3453 19.3314C10.7804 19.7616 11.1258 20.2737 11.3616 20.8383C11.5973 21.4029 11.7187 22.0087 11.7187 22.6205C11.7187 23.2323 11.5973 23.8381 11.3616 24.4026C11.1258 24.9672 10.7804 25.4794 10.3453 25.9095C9.46306 26.7822 8.2722 27.2717 7.03124 27.2717C5.79029 27.2717 4.59943 26.7822 3.71718 25.9095C3.28208 25.4794 2.93665 24.9672 2.7009 24.4026C2.46514 23.8381 2.34375 23.2323 2.34375 22.6205C2.34375 22.0087 2.46514 21.4029 2.7009 20.8383C2.93665 20.2737 3.28208 19.7616 3.71718 19.3314C4.59943 18.4587 5.79029 17.9692 7.03124 17.9692C8.2722 17.9692 9.46306 18.4587 10.3453 19.3314Z" fill="#FD614B"/>
<path id="Vector_11" d="M30.1055 27.8453C30.5287 27.6942 30.902 27.4293 31.1843 27.0797C31.4667 26.7302 31.6473 26.3096 31.7061 25.8641C31.765 25.4186 31.6999 24.9656 31.518 24.5547C31.3361 24.1438 31.0444 23.791 30.675 23.5352C30.3712 23.3231 30.0229 23.1833 29.6568 23.1264C29.2907 23.0696 28.9164 23.0971 28.5625 23.207L14.8985 27.407C13.9701 27.67 13.103 28.1144 12.3474 28.7145C11.5918 29.3145 10.9626 30.0584 10.4961 30.9031L7.9102 35.5578C7.88675 35.5999 7.86739 35.6441 7.85239 35.6898L3.94614 47.4086C3.90668 47.5261 3.89578 47.6513 3.91433 47.7738C3.93288 47.8964 3.98035 48.0127 4.0528 48.1133C4.12526 48.2139 4.22063 48.2957 4.33101 48.3521C4.44138 48.4085 4.5636 48.4377 4.68754 48.4375H16.4063C16.5967 48.4374 16.7805 48.3679 16.9232 48.2419C17.0659 48.1158 17.1577 47.942 17.1813 47.7531L17.7688 43.0508C17.8095 42.7338 17.9386 42.4346 18.1412 42.1875C18.3439 41.9403 18.612 41.7552 18.9149 41.6531L38.7844 35.0312C40.3036 34.5294 41.5765 33.471 42.3469 32.0688L47.0696 24.3344C47.4926 23.64 47.6323 22.8095 47.4597 22.0149C47.2871 21.2204 46.8155 20.5227 46.1425 20.0663C45.4696 19.61 44.6469 19.43 43.8449 19.5637C43.0429 19.6974 42.323 20.1345 41.8344 20.7844L37.4516 26.6273C36.7092 27.6237 35.6079 28.2918 34.3813 28.4898L25.5969 29.6562L30.1055 27.8453ZM34.6086 30.0352C36.2427 29.7766 37.7112 28.8899 38.7008 27.5641L43.0836 21.7203C43.3305 21.3893 43.6955 21.1663 44.1026 21.0976C44.5098 21.0289 44.9278 21.1199 45.2695 21.3516C45.6113 21.5834 45.8505 21.938 45.9374 22.3416C46.0243 22.7453 45.9521 23.1669 45.736 23.5187L40.9938 31.2875C40.4119 32.3568 39.4453 33.165 38.2899 33.5484L18.4204 40.1719C17.8384 40.3678 17.3234 40.7236 16.9341 41.1984C16.5448 41.6732 16.2969 42.248 16.2188 42.857L15.7164 46.875H5.77114L9.31176 36.2531L11.8625 31.6625C12.2315 30.9955 12.7291 30.4084 13.3267 29.9352C13.9243 29.4621 14.61 29.1123 15.3438 28.9062L29.0211 24.7C29.149 24.6601 29.2844 24.6501 29.4167 24.6709C29.549 24.6916 29.6749 24.7425 29.7844 24.8195C29.8965 24.8973 29.9891 25 30.0548 25.1195C30.1206 25.2391 30.1577 25.3723 30.1633 25.5086C30.1633 25.7035 30.1022 25.8935 29.9887 26.052C29.8753 26.2104 29.715 26.3294 29.5305 26.3922L19.2399 30.525C19.0626 30.5955 18.9172 30.7285 18.8312 30.8988C18.7452 31.0692 18.7245 31.2651 18.773 31.4497C18.8216 31.6342 18.936 31.7946 19.0947 31.9006C19.2534 32.0066 19.4453 32.0509 19.6344 32.025L34.6086 30.0352ZM25 1.5625C23.9184 1.5625 22.8611 1.88324 21.9618 2.48415C21.0624 3.08506 20.3615 3.93917 19.9476 4.93845C19.5337 5.93773 19.4254 7.03732 19.6364 8.09815C19.8474 9.15898 20.3682 10.1334 21.1331 10.8982C21.8979 11.6631 22.8723 12.1839 23.9331 12.3949C24.994 12.6059 26.0936 12.4976 27.0928 12.0837C28.0921 11.6698 28.9462 10.9689 29.5471 10.0695C30.1481 9.17019 30.4688 8.11287 30.4688 7.03125C30.4671 5.58136 29.8904 4.19132 28.8652 3.16609C27.84 2.14086 26.4499 1.56415 25 1.5625ZM25 3.125C25.7909 3.12503 26.5629 3.36682 27.2125 3.81797L21.7868 9.24375C21.3816 8.65813 21.1446 7.97277 21.1013 7.262C21.0581 6.55123 21.2102 5.84217 21.5413 5.21173C21.8724 4.58129 22.3697 4.05352 22.9794 3.68567C23.5892 3.31782 24.288 3.12392 25 3.125ZM25 10.9375C24.2611 10.9358 23.5382 10.7227 22.9165 10.3234L28.2915 4.94844C28.6687 5.53742 28.8802 6.21721 28.9037 6.91626C28.9272 7.61531 28.7618 8.30777 28.4249 8.92074C28.088 9.53372 27.5922 10.0445 26.9894 10.3995C26.3867 10.7544 25.6995 10.9402 25 10.9375ZM29.6875 14.0625H20.3125C19.2765 14.0625 18.283 14.4741 17.5504 15.2066C16.8178 15.9392 16.4063 16.9327 16.4063 17.9688C16.4063 19.0048 16.8178 19.9983 17.5504 20.7309C18.283 21.4634 19.2765 21.875 20.3125 21.875H29.6875C30.7235 21.875 31.7171 21.4634 32.4497 20.7309C33.1822 19.9983 33.5938 19.0048 33.5938 17.9688C33.5938 16.9327 33.1822 15.9392 32.4497 15.2066C31.7171 14.4741 30.7235 14.0625 29.6875 14.0625ZM17.9688 17.9688C17.9694 17.3473 18.2165 16.7516 18.6559 16.3122C19.0954 15.8727 19.6911 15.6256 20.3125 15.625H24.2188V20.3125H20.3125C19.6911 20.3119 19.0954 20.0648 18.6559 19.6253C18.2165 19.1859 17.9694 18.5902 17.9688 17.9688ZM29.6875 20.3125H25.7813V15.625H29.6875C30.3091 15.625 30.9053 15.8719 31.3448 16.3115C31.7844 16.751 32.0313 17.3471 32.0313 17.9688C32.0313 18.5904 31.7844 19.1865 31.3448 19.626C30.9053 20.0656 30.3091 20.3125 29.6875 20.3125ZM7.03129 28.0492C8.47842 28.0526 9.8679 27.4824 10.8954 26.4633C11.4037 25.9606 11.8072 25.362 12.0826 24.7023C12.358 24.0426 12.4998 23.3348 12.4998 22.6199C12.4998 21.905 12.358 21.1972 12.0826 20.5375C11.8072 19.8778 11.4037 19.2793 10.8954 18.7766C9.86601 17.7603 8.47776 17.1905 7.03129 17.1905C5.58482 17.1905 4.19658 17.7603 3.16723 18.7766C2.65881 19.2793 2.25518 19.8779 1.9797 20.5376C1.70422 21.1974 1.56238 21.9053 1.56238 22.6203C1.56238 23.3353 1.70422 24.0432 1.9797 24.703C2.25518 25.3628 2.65881 25.9613 3.16723 26.4641C4.19472 27.483 5.58425 28.053 7.03129 28.0492ZM10.9375 22.6195C10.9384 23.1283 10.8379 23.6322 10.6418 24.1017C10.4456 24.5712 10.1579 24.9969 9.79536 25.3539C9.26977 25.872 8.60747 26.2297 7.88598 26.3852V18.8539C8.60754 19.0096 9.26984 19.3676 9.79536 19.8859C10.158 20.2429 10.4458 20.6685 10.6419 21.138C10.8381 21.6076 10.9386 22.1115 10.9375 22.6203V22.6195ZM4.26723 19.8859C4.82853 19.3299 5.54568 18.9577 6.32348 18.8188V26.4203C5.54574 26.2817 4.82857 25.9098 4.26723 25.3539C3.90548 24.9964 3.61826 24.5707 3.42224 24.1014C3.22622 23.6321 3.12529 23.1285 3.12529 22.6199C3.12529 22.1113 3.22622 21.6078 3.42224 21.1385C3.61826 20.6692 3.90548 20.2434 4.26723 19.8859ZM15.2336 9.57109L8.3977 2.73359C7.64314 1.99932 6.62981 1.59166 5.57697 1.59884C4.52413 1.60601 3.51645 2.02743 2.77196 2.77192C2.02747 3.51641 1.60605 4.52409 1.59888 5.57693C1.59171 6.62977 1.99936 7.64309 2.73364 8.39766L9.57114 15.2336C10.322 15.9845 11.3405 16.4063 12.4024 16.4063C13.4643 16.4063 14.4827 15.9845 15.2336 15.2336C15.9845 14.4827 16.4064 13.4643 16.4064 12.4023C16.4064 11.3404 15.9845 10.322 15.2336 9.57109ZM3.83911 3.83984C4.29761 3.38285 4.91854 3.12617 5.5659 3.12602C6.21326 3.12588 6.8343 3.38227 7.29301 3.83906L10.1586 6.70469L6.70551 10.1578L3.83989 7.29297C3.38304 6.83449 3.12652 6.21364 3.12652 5.56641C3.12652 4.91917 3.38226 4.29832 3.83911 3.83984ZM14.1289 14.1289C13.6704 14.5856 13.0496 14.8419 12.4024 14.8419C11.7552 14.8419 11.1344 14.5856 10.6758 14.1289L7.8102 11.2633L11.2633 7.81016L14.1289 10.6758C14.586 11.1342 14.8426 11.755 14.8426 12.4023C14.8426 13.0496 14.586 13.6705 14.1289 14.1289ZM37.5977 16.4039C38.1234 16.4049 38.6442 16.302 39.1301 16.1012C39.616 15.9004 40.0574 15.6055 40.429 15.2336L47.2664 8.39766C48.0007 7.64309 48.4084 6.62977 48.4012 5.57693C48.394 4.52409 47.9726 3.51641 47.2281 2.77192C46.4836 2.02743 45.476 1.60601 44.4231 1.59884C43.3703 1.59166 42.3569 1.99932 41.6024 2.73359L34.7664 9.57109C34.2061 10.1307 33.8245 10.8441 33.6698 11.6207C33.5151 12.3974 33.5943 13.2025 33.8975 13.9341C34.2006 14.6658 34.7141 15.291 35.3728 15.7306C36.0314 16.1703 36.8058 16.4046 37.5977 16.4039ZM42.7071 3.83984C42.9322 3.60584 43.2017 3.41907 43.4998 3.29046C43.798 3.16185 44.1188 3.09399 44.4434 3.09084C44.7681 3.08769 45.0902 3.14932 45.3908 3.27212C45.6913 3.39492 45.9644 3.57643 46.194 3.80603C46.4236 4.03562 46.6051 4.3087 46.7279 4.60928C46.8507 4.90986 46.9124 5.23191 46.9092 5.5566C46.9061 5.88128 46.8382 6.20208 46.7096 6.50022C46.581 6.79836 46.3942 7.06787 46.1602 7.29297L43.2954 10.1586L39.8422 6.70547L42.7071 3.83984ZM35.8711 10.6758L38.7368 7.81016L42.1899 11.2633L39.3243 14.1289C38.8663 14.5868 38.2453 14.8441 37.5977 14.8441C36.9501 14.8441 36.3291 14.5868 35.8711 14.1289C35.4132 13.671 35.156 13.0499 35.156 12.4023C35.156 11.7548 35.4132 11.1337 35.8711 10.6758Z" fill="black"/>
</g>
</g>
</svg>
