<svg width="50" height="50" viewBox="0 0 50 50" fill="none" xmlns="http://www.w3.org/2000/svg">
<g id="Frame" clip-path="url(#clip0_58_7805)">
<g id="Group">
<path id="Vector" d="M29.585 5.81809L30.4639 5.03391L29.585 4.18332C29.585 4.18332 25.7602 -1.02576 23.6664 0.181563C22.1596 1.05051 21.9269 3.9052 21.9511 5.81809L25.7681 6.69699L29.585 5.81809Z" fill="#FF4D54"/>
<path id="Vector_2" d="M21.951 5.81787C21.9642 6.8665 22.0546 7.63242 22.0546 7.63242L25.768 8.51133L29.585 7.63242L30.4639 6.69678L29.585 5.81787H21.951Z" fill="#EA4955"/>
<path id="Vector_3" d="M33.6449 5.81809L32.766 5.03391L33.6449 4.18332C33.6449 4.18332 37.4697 -1.02576 39.5635 0.181563C41.0703 1.05051 41.3029 3.9052 41.2788 5.81809L37.4618 6.69699L33.6449 5.81809Z" fill="#FF4D54"/>
<path id="Vector_4" d="M41.2788 5.81787C41.2656 6.8665 41.1752 7.63242 41.1752 7.63242L37.4618 8.51133L33.6448 7.63242L32.7659 6.69678L33.6448 5.81787H41.2788Z" fill="#EA4955"/>
<path id="Vector_5" d="M29.585 5.81787L31.6157 6.69678L33.6465 5.81787V4.18311H29.585V5.81787Z" fill="#CC353E"/>
<path id="Vector_6" d="M29.585 5.81787V7.63242L31.6157 8.51133L33.6466 7.63242V5.81787H29.585Z" fill="#C12131"/>
<path id="Vector_7" d="M18.8417 12.711L31.6157 11.7754L44.6722 12.711V46.6734C44.6722 47.5086 43.9952 48.1856 43.16 48.1856H20.3539C19.5187 48.1856 18.8417 47.5086 18.8417 46.6734V12.711Z" fill="#85CF99"/>
<path id="Vector_8" d="M17.8313 12.711H45.6826C46.2394 12.711 46.6907 12.2597 46.6907 11.7029V8.64092C46.6907 8.08418 46.2394 7.63281 45.6826 7.63281H33.6449L31.6158 8.51172L29.5851 7.63281H17.8313C17.2746 7.63281 16.8232 8.08418 16.8232 8.64092V11.7029C16.8232 12.2597 17.2746 12.711 17.8313 12.711Z" fill="#B1E7A1"/>
<path id="Vector_9" d="M45.6827 10.8963H17.8315C17.2747 10.8963 16.8234 10.4449 16.8234 9.88818V11.7027C16.8234 12.2595 17.2747 12.7108 17.8315 12.7108H45.6827C46.2395 12.7108 46.6908 12.2595 46.6908 11.7027V9.88818C46.6908 10.4449 46.2395 10.8963 45.6827 10.8963Z" fill="#97D4A8"/>
<path id="Vector_10" d="M29.585 10.8966L31.6157 11.7755L33.6466 10.8966V7.63281H29.585V10.8966Z" fill="#FF4D54"/>
<path id="Vector_11" d="M29.585 12.7109L31.6158 13.5898L33.6466 12.7109V10.8965H29.585V12.7109Z" fill="#EA4955"/>
<path id="Vector_12" d="M29.585 12.7109H33.6466V25.728L32.7677 29.8108L33.6466 34.0251V48.1855H29.585V12.7109Z" fill="#CC353E"/>
<path id="Vector_13" d="M14.7945 22.9055L15.6734 22.0034L14.7945 21.1556C14.7945 21.1556 10.9523 15.7786 8.86294 17.0255C7.34419 17.9318 7.12173 20.9303 7.15064 22.9054L10.9726 23.7843L14.7945 22.9055Z" fill="#FF4D54"/>
<path id="Vector_14" d="M7.15051 22.9053C7.16584 23.9576 7.25247 24.7198 7.25247 24.7198L10.9724 25.5987L14.7944 24.7175L15.6733 23.8125L14.7944 22.9053H7.15051Z" fill="#EA4955"/>
<path id="Vector_15" d="M18.8522 22.9055L17.9733 22.0034L18.8522 21.1556C18.8522 21.1556 22.6944 15.7786 24.7838 17.0255C26.3026 17.9318 26.525 20.9303 26.4961 22.9054L22.6741 23.7843L18.8522 22.9055Z" fill="#FF4D54"/>
<path id="Vector_16" d="M26.4961 22.9053C26.4808 23.9576 26.3942 24.7198 26.3942 24.7198L22.6743 25.5987L18.8523 24.7175L17.9734 23.8125L18.8523 22.9053H26.4961Z" fill="#EA4955"/>
<path id="Vector_17" d="M14.7944 22.9039L16.8241 23.7834L18.8537 22.9051V21.1564L14.7944 21.1553V22.9039Z" fill="#CC353E"/>
<path id="Vector_18" d="M14.7944 22.9053V24.7174L16.8241 25.5975L18.8538 24.7197V22.9053H14.7944Z" fill="#C12131"/>
<path id="Vector_19" d="M3.22878 49.0643H30.4177C31.2529 49.0643 31.93 48.4877 31.93 46.6731V29.8105L16.8233 28.875L1.71667 29.8105V46.6731C1.71658 48.4877 2.39363 49.0643 3.22878 49.0643Z" fill="#F786CB"/>
<path id="Vector_20" d="M1.00811 28.8749H32.6384C33.1952 28.8749 33.6465 28.1805 33.6465 26.9879V25.7278C33.6465 25.1711 33.1951 24.7197 32.6384 24.7197H18.8521L16.824 25.5986L14.7943 24.7197H1.00811C0.451367 24.7196 0 25.171 0 25.7277V26.9878C0 28.3992 0.451367 28.8749 1.00811 28.8749Z" fill="#FFA5D5"/>
<path id="Vector_21" d="M32.6384 27.9964H1.00811C0.451367 27.9964 0 27.545 0 26.9883V28.8028C0 29.3596 0.451367 29.8109 1.00811 29.8109H32.6384C33.1952 29.8109 33.6465 29.3596 33.6465 28.8028V26.9883C33.6466 27.545 33.1952 27.9964 32.6384 27.9964Z" fill="#FF92D0"/>
<path id="Vector_22" d="M30.4177 48.1855H3.22876C2.3936 48.1855 1.71655 47.5085 1.71655 46.6733V48.4879C1.71655 49.323 2.3936 50.0001 3.22876 50.0001H14.7921L16.8233 49.0645L18.8543 50.0001H27.8465L29.1336 49.0645L30.4177 50.0001C31.2529 50.0001 31.9299 49.323 31.9299 48.4879V46.6733C31.9298 47.5086 31.2529 48.1855 30.4177 48.1855Z" fill="#EF78C2"/>
<path id="Vector_23" d="M14.7921 27.9961L16.8233 28.875L18.8544 27.9961V24.7197H14.7921V27.9961Z" fill="#FF4D54"/>
<path id="Vector_24" d="M14.7921 29.8106L16.8241 30.6896L18.8544 29.8106V27.9961H14.7921V29.8106Z" fill="#EA4955"/>
<path id="Vector_25" d="M14.7921 29.8105H18.8544V48.1853L16.8233 49.0642L14.7921 48.1853V29.8105Z" fill="#CC353E"/>
<path id="Vector_26" d="M14.7921 48.1855H18.8544V50.0001H14.7921V48.1855Z" fill="#C12131"/>
<path id="Vector_27" d="M35.3691 32.2105L36.248 31.2784L35.3691 30.4368C35.3691 30.4368 32.219 26.4056 30.5149 27.8889C29.4837 28.7866 29.2485 30.7459 29.23 32.2105L32.2989 33.0894L35.3691 32.2105Z" fill="#FF4D54"/>
<path id="Vector_28" d="M29.2301 32.2104C29.2171 33.2398 29.3111 34.025 29.3111 34.025L32.2271 34.9039L35.3693 34.025L36.2482 33.1178L35.3693 32.2105H29.2301V32.2104Z" fill="#EA4955"/>
<path id="Vector_29" d="M39.303 32.2105L38.4241 31.2784L39.303 30.4368C39.303 30.4368 42.4532 26.4056 44.1572 27.8889C45.1884 28.7866 45.4236 30.7459 45.4421 32.2105L42.3732 33.0894L39.303 32.2105Z" fill="#FF4D54"/>
<path id="Vector_30" d="M45.4421 32.2104C45.4551 33.2398 45.3612 34.025 45.3612 34.025L42.4452 34.9039L39.303 34.025L38.4241 33.1178L39.303 32.2105H45.4421V32.2104Z" fill="#EA4955"/>
<path id="Vector_31" d="M35.3691 32.2104L37.336 33.0893L39.303 32.2104V30.4365H35.3691V32.2104Z" fill="#CC353E"/>
<path id="Vector_32" d="M35.3691 32.2104V34.0249L37.336 34.9038L39.303 34.0249V32.2104H35.3691Z" fill="#C12131"/>
<path id="Vector_33" d="M27.8467 49.0642H46.8256C47.6607 49.0642 48.3378 48.4876 48.3378 46.673V38.5821L37.3361 37.6465L26.3345 38.5821V46.673C26.3345 48.4876 27.0115 49.0642 27.8467 49.0642Z" fill="#FCC07E"/>
<path id="Vector_34" d="M25.6802 37.6466H48.9919C49.5486 37.6466 50 37.0104 50 35.7596V35.033C50 34.4763 49.5486 34.0249 48.9919 34.0249H39.303L37.3361 34.9038L35.3692 34.0249H25.6803C25.1236 34.0249 24.6722 34.4763 24.6722 35.033V35.7596C24.6721 37.5741 25.1235 37.6466 25.6802 37.6466Z" fill="#FFDE8F"/>
<path id="Vector_35" d="M48.9918 36.7679H25.6802C25.1235 36.7679 24.6721 36.3165 24.6721 35.7598V37.5743C24.6721 38.1311 25.1235 38.5824 25.6802 38.5824H48.9918C49.5486 38.5824 50 38.1311 50 37.5743V35.7598C50 36.3166 49.5486 36.7679 48.9918 36.7679Z" fill="#F9CD7F"/>
<path id="Vector_36" d="M46.8255 48.1855H27.8467C27.0115 48.1855 26.3345 47.5085 26.3345 46.6733V48.4879C26.3345 49.323 27.0115 50.0001 27.8467 50.0001H35.3692L37.3361 49.0645L39.303 50.0001H46.8255C47.6606 50.0001 48.3377 49.323 48.3377 48.4879V46.6733C48.3377 47.5086 47.6606 48.1855 46.8255 48.1855Z" fill="#F9B067"/>
<path id="Vector_37" d="M35.3691 36.7677L37.336 37.6466L39.303 36.7677V34.0249H35.3691V36.7677Z" fill="#FF4D54"/>
<path id="Vector_38" d="M35.3691 38.5821L37.336 39.461L39.303 38.5821V36.7676H35.3691V38.5821Z" fill="#EA4955"/>
<path id="Vector_39" d="M35.3691 38.5825H39.303V48.1856L37.3361 49.0646L35.3691 48.1856V38.5825Z" fill="#CC353E"/>
<path id="Vector_40" d="M35.3691 48.1855H39.3029V50.0001H35.3691V48.1855Z" fill="#C12131"/>
</g>
</g>
<defs>
<clipPath id="clip0_58_7805">
<rect width="50" height="50" fill="white"/>
</clipPath>
</defs>
</svg>
